<?xml version="1.0" encoding="UTF-8"?> <svg xmlns="http://www.w3.org/2000/svg" id="Layer_1" data-name="Layer 1" viewBox="0 0 165.76 66.61"><defs><style> .cls-1 { fill: #0071ba; } .cls-2 { fill: #fdb522; } .cls-3 { fill: #00a34f; } .cls-4 { fill: #e0251c; } </style></defs><path class="cls-1" d="m5.55,51.72c1.45,0,2.6.53,3.6,1.31.32.25.48.8.08,1.24-.32.35-.88.26-1.2.05-.7-.46-1.32-.97-2.49-.97-2.18,0-3.86,1.8-3.86,4.02s1.67,4,3.86,4c1.16,0,1.79-.51,2.49-.97.32-.21.88-.3,1.2.05.4.45.24.99-.08,1.24-1,.78-2.15,1.31-3.6,1.31C2.44,62.99,0,60.49,0,57.36s2.44-5.64,5.55-5.64"></path><path class="cls-1" d="m12.71,56.52c.41-.91,1.58-1.29,2.36-1.29,1.9,0,3.01,1.24,3.01,3.36v3.49c0,.45-.37.83-.84.83-.45,0-.8-.38-.8-.83v-3.39c0-1.16-.73-1.85-1.66-1.85s-2.07.53-2.07,1.99v3.25c0,.45-.37.83-.85.83-.45,0-.8-.38-.8-.83v-9.99c0-.45.37-.83.84-.83.45,0,.8.38.8.83v4.43Z"></path><path class="cls-1" d="m21.86,56.14c0-.45-.37-.83-.84-.83-.45,0-.8.38-.8.83v5.94c0,.45.35.83.8.83.48,0,.84-.38.84-.83v-5.94Zm-.83-4.8c.61,0,1.08.45,1.08,1.04s-.48,1.04-1.08,1.04-1.1-.45-1.1-1.04.51-1.04,1.1-1.04"></path><path class="cls-1" d="m25.73,62.08c0,.45-.37.83-.85.83-.45,0-.8-.38-.8-.83v-9.99c0-.45.35-.83.8-.83.48,0,.85.38.85.83v9.99Z"></path><path class="cls-1" d="m31.48,56.82c-1.24,0-2.25.89-2.25,2.26s1,2.31,2.25,2.31,2.28-.86,2.28-2.31-1.16-2.26-2.28-2.26m2.29-4.73c0-.45.37-.83.84-.83.45,0,.8.38.8.83v9.99c0,.45-.35.83-.8.83-.48,0-.84-.38-.84-.83v-.33c-.46.8-1.48,1.24-2.49,1.24-2.01,0-3.73-1.53-3.73-3.87s1.69-3.89,3.71-3.89c1.05,0,2.04.41,2.5,1.23v-4.37Z"></path><path class="cls-1" d="m39.32,56.52c.41-.91,1.58-1.29,2.36-1.29,1.9,0,3.01,1.24,3.01,3.36v3.49c0,.45-.37.83-.84.83-.45,0-.8-.38-.8-.83v-3.39c0-1.16-.73-1.85-1.66-1.85s-2.07.53-2.07,1.99v3.25c0,.45-.37.83-.85.83-.45,0-.8-.38-.8-.83v-9.99c0-.45.37-.83.84-.83.45,0,.8.38.8.83v4.43Z"></path><path class="cls-1" d="m52.56,59.09c0-1.37-1.04-2.26-2.28-2.26s-2.25.89-2.25,2.26,1.02,2.31,2.25,2.31,2.28-.91,2.28-2.31m-6.15,0c0-2.36,1.77-3.86,3.87-3.86s3.9,1.5,3.9,3.86-1.78,3.9-3.9,3.9-3.87-1.54-3.87-3.9"></path><path class="cls-1" d="m61.7,59.09c0-1.37-1.04-2.26-2.28-2.26s-2.25.89-2.25,2.26,1.02,2.31,2.25,2.31,2.28-.91,2.28-2.31m-6.15,0c0-2.36,1.77-3.86,3.87-3.86s3.9,1.5,3.9,3.86-1.78,3.9-3.9,3.9-3.87-1.54-3.87-3.9"></path><path class="cls-1" d="m68.63,56.82c-1.24,0-2.25.89-2.25,2.26s1,2.31,2.25,2.31,2.28-.86,2.28-2.31-1.16-2.26-2.28-2.26m2.29-4.73c0-.45.37-.83.84-.83.45,0,.8.38.8.83v9.99c0,.45-.35.83-.8.83-.48,0-.84-.38-.84-.83v-.33c-.46.8-1.48,1.24-2.49,1.24-2.01,0-3.73-1.53-3.73-3.87s1.69-3.89,3.71-3.89c1.05,0,2.04.41,2.5,1.23v-4.37Z"></path><path class="cls-1" d="m80.83,62.05c0,.46-.38.86-.88.86-.45,0-.81-.4-.81-.86v-9.42c0-.46.37-.86.81-.86.49,0,.88.4.88.86v9.42Z"></path><path class="cls-1" d="m83.38,60.41c.4-.16.7.05.83.32.3.58.88.89,1.61.89s1.29-.33,1.29-.89c0-.48-.46-.68-1-.81l-1-.24c-1.58-.43-2.15-1.29-2.06-2.49.1-1.1,1.29-1.96,2.66-1.96.99,0,1.9.32,2.39,1.1.22.38.11.76-.14.96-.27.22-.61.21-.96-.1-.41-.37-.89-.51-1.28-.51-.41,0-.88.14-1.04.4-.13.21-.14.42-.06.64.1.29.54.43.94.54l1.15.29c1.61.4,1.94,1.45,1.94,2.2,0,1.43-1.26,2.25-2.96,2.25-1.15,0-2.31-.61-2.71-1.69-.13-.4.05-.77.4-.89"></path><path class="cls-1" d="m99.77,61.01l-2.95-6.02-.84,7.14c-.06.46-.38.78-.96.78-.51,0-.77-.48-.72-.94l1.15-9.4c.05-.43.37-.8.8-.8h.11c.35,0,.68.14.88.54l3.52,7.36,3.52-7.36c.19-.4.53-.54.88-.54h.11c.43,0,.75.37.8.8l1.15,9.4c.05.46-.21.94-.72.94-.57,0-.89-.32-.96-.78l-.84-7.14-2.95,6.02c-.16.33-.46.7-.99.7s-.83-.37-.99-.7"></path><path class="cls-1" d="m112.87,61.4c1.21,0,2.3-.84,2.3-2.31s-1.18-2.26-2.3-2.26c-1.24,0-2.28.89-2.28,2.26s1.04,2.31,2.28,2.31m2.31.37c-.49.81-1.58,1.23-2.5,1.23-2.01,0-3.78-1.51-3.78-3.89s1.77-3.87,3.78-3.87c.89,0,1.99.37,2.5,1.21v-.3c0-.45.35-.83.8-.83.48,0,.84.38.84.83v5.94c0,.45-.37.83-.84.83-.45,0-.8-.38-.8-.83v-.32Z"></path><path class="cls-1" d="m122.57,56.82c-1.24,0-2.26.94-2.26,2.29s1.02,2.3,2.26,2.3c1.12,0,2.3-.84,2.3-2.3s-1.07-2.29-2.3-2.29m-.16,8.26c1.51,0,2.49-.84,2.49-2.93v-.54c-.4.91-1.51,1.39-2.52,1.39-2.01,0-3.76-1.5-3.76-3.86s1.75-3.9,3.76-3.9c1,0,2.06.45,2.52,1.26v-.35c0-.45.35-.83.8-.83.48,0,.84.38.84.83l-.02,5.66c-.02,3.43-1.61,4.81-4.11,4.81-1.2,0-2.26-.51-3.01-1.43-.25-.33-.21-.83.13-1.07.35-.24.8-.16,1.08.16.45.49,1.15.81,1.8.81"></path><path class="cls-1" d="m130.39,56.14c0-.45-.37-.83-.84-.83-.45,0-.8.38-.8.83v5.94c0,.45.35.83.8.83.48,0,.84-.38.84-.83v-5.94Zm-.83-4.8c.61,0,1.08.45,1.08,1.04s-.48,1.04-1.08,1.04-1.1-.45-1.1-1.04.51-1.04,1.1-1.04"></path><path class="cls-1" d="m136.14,55.23c.86,0,1.64.24,2.28.68.35.24.43.7.19,1.1-.22.37-.78.38-1.13.17-.38-.22-.86-.37-1.34-.37-1.24,0-2.34.91-2.34,2.3s1.1,2.28,2.34,2.28c.48,0,.96-.14,1.34-.37.35-.21.91-.19,1.13.18.24.4.16.86-.19,1.1-.64.45-1.42.68-2.28.68-2.14,0-3.97-1.51-3.97-3.87s1.83-3.89,3.97-3.89"></path><path class="cls-1" d="m144.01,61.4c1.21,0,2.3-.84,2.3-2.31s-1.18-2.26-2.3-2.26c-1.24,0-2.28.89-2.28,2.26s1.04,2.31,2.28,2.31m2.31.37c-.49.81-1.58,1.23-2.5,1.23-2.01,0-3.78-1.51-3.78-3.89s1.77-3.87,3.78-3.87c.89,0,1.99.37,2.5,1.21v-.3c0-.45.35-.83.8-.83.48,0,.84.38.84.83v5.94c0,.45-.37.83-.84.83-.45,0-.8-.38-.8-.83v-.32Z"></path><path class="cls-1" d="m151.83,62.08c0,.45-.37.83-.85.83-.45,0-.8-.38-.8-.83v-9.99c0-.45.35-.83.8-.83.48,0,.85.38.85.83v9.99Z"></path><path class="cls-1" d="m155.03,51.77c.46,0,.84.4.84.86l-.21,6.65c0,.37-.29.68-.65.68s-.65-.32-.65-.68l-.21-6.65c0-.46.38-.86.84-.86h.03Zm.02,9.07c.62,0,1.13.46,1.13,1.08s-.51,1.07-1.13,1.07-1.13-.45-1.13-1.07.53-1.08,1.13-1.08"></path><path class="cls-1" d="m162.08,7.67c.39,0,.61-.19.61-.49,0-.34-.22-.49-.64-.49h-.64v.97h.66Zm.43,1.48l-.71-.93h-.37v.86c0,.21-.1.33-.3.33h-.1c-.2,0-.3-.15-.3-.39v-2.48c0-.25.14-.39.37-.39h.99c.84,0,1.3.34,1.3,1.03,0,.44-.22.78-.62.91-.08.03-.16.06-.25.07l.83,1.01s-.16.27-.39.27c-.13,0-.32-.07-.45-.26m2-1.43c0-1.52-1.07-2.64-2.55-2.64s-2.53,1.07-2.53,2.63,1.07,2.64,2.55,2.64,2.53-1.07,2.53-2.63m-5.63,0c0-1.81,1.32-3.16,3.1-3.16s3.08,1.31,3.08,3.13-1.31,3.16-3.09,3.16-3.09-1.31-3.09-3.13"></path><path class="cls-1" d="m8.48,41.46v-3.21c1.33,2.23,4.21,3.84,8.08,3.84,8.02,0,13.67-6.24,13.67-14.95s-5.02-14.83-13.33-14.83c-3.92,0-7.1,1.6-8.31,3.38V0H0v41.46h8.48Zm12.98-14.26c0,4.81-3,7.1-6.46,7.1s-6.52-2.41-6.52-7.1,3.11-7.04,6.52-7.04,6.46,2.23,6.46,7.04"></path><path class="cls-4" d="m33.33,33.61c0,4.52,3.64,8.65,9.93,8.65,3.87,0,6.52-1.55,8.08-4.01,0,2,.23,2.98.29,3.21h7.91c-.06-.29-.35-2.18-.35-4.41v-13.91c0-5.84-3.41-10.99-12.69-10.99-8.42,0-12.29,5.38-12.58,9.45l7.62,1.55c.17-2.12,1.85-4.18,4.91-4.18,2.77,0,4.21,1.43,4.21,3.09,0,.97-.52,1.72-2.08,1.95l-6.75,1.03c-4.73.74-8.48,3.49-8.48,8.59m12.06,2.35c-2.48,0-3.4-1.37-3.4-2.92,0-2,1.38-2.86,3.23-3.15l5.43-.86v1.26c0,4.41-2.65,5.67-5.25,5.67"></path><path class="cls-4" d="m107.93,33.61c0,4.52,3.64,8.65,9.93,8.65,3.87,0,6.52-1.55,8.08-4.01,0,2,.23,2.98.29,3.21h7.91c-.06-.29-.35-2.18-.35-4.41v-13.91c0-5.84-3.41-10.99-12.69-10.99-8.43,0-12.29,5.38-12.58,9.45l7.62,1.55c.17-2.12,1.85-4.18,4.9-4.18,2.77,0,4.21,1.43,4.21,3.09,0,.97-.52,1.72-2.08,1.95l-6.75,1.03c-4.73.74-8.48,3.49-8.48,8.59m12.06,2.35c-2.48,0-3.4-1.37-3.4-2.92,0-2,1.38-2.86,3.23-3.15l5.43-.86v1.26c0,4.41-2.65,5.67-5.25,5.67"></path><path class="cls-2" d="m75.96,4.7h-7.85v3.66c0,2.69-1.44,4.64-4.44,4.64h-1.44v7.62h5.08v12.2c0,5.73,3.58,9.16,9.58,9.16,2.77,0,4.16-.63,4.56-.8v-7.21c-.52.17-1.39.29-2.31.29-1.9,0-3.17-.63-3.17-2.98v-10.65h5.6v-7.62h-5.6V4.7Z"></path><path class="cls-3" d="m98.81,4.7h-7.85v3.66c0,2.69-1.44,4.64-4.44,4.64h-1.44v7.62h5.08v12.2c0,5.73,3.58,9.16,9.58,9.16,2.77,0,4.16-.63,4.56-.8v-7.21c-.52.17-1.38.29-2.31.29-1.91,0-3.17-.63-3.17-2.98v-10.65h5.6v-7.62h-5.6V4.7Z"></path><path class="cls-1" d="m150.56,4.7h-7.85v3.66c0,2.69-1.44,4.64-4.44,4.64h-1.44v7.62h5.08v12.2c0,5.73,3.58,9.16,9.58,9.16,2.77,0,4.16-.63,4.56-.8v-7.21c-.52.17-1.39.29-2.31.29-1.91,0-3.17-.63-3.17-2.98v-10.65h5.6v-7.62h-5.6V4.7Z"></path><path class="cls-1" d="m161.14,12.52c.09-.19.19-.22.33-.22h.07c.17,0,.3.15.32.32l.34,2.79c.02.17-.14.35-.33.36-.19.02-.37-.12-.39-.31l-.21-1.77-.68,1.41c-.06.14-.19.3-.4.3s-.33-.16-.4-.3l-.69-1.41-.21,1.77c-.02.18-.19.32-.39.31-.19-.01-.36-.19-.33-.36l.34-2.79c.02-.17.15-.32.32-.32h.07c.14,0,.24.03.33.22l.94,2.01.94-2.01Z"></path><path class="cls-1" d="m163.16,15.75c-.18,0-.29-.14-.29-.31v-2.81c0-.17.1-.31.29-.31h1.05c.98,0,1.55.75,1.55,1.72s-.56,1.71-1.55,1.71h-1.05Zm.44-.64h.62c.55,0,.82-.51.82-1.07s-.27-1.08-.82-1.08h-.62v2.15Z"></path><path class="cls-1" d="m165.15,11.84h-6.36c-.16,0-.29-.13-.29-.29s.13-.29.29-.29h6.36c.16,0,.29.13.29.29s-.13.29-.29.29Z"></path><g><path class="cls-1" d="m161.2,51.65l-.46,1.01c-.03.09-.11.21-.26.21s-.22-.11-.26-.21l-.47-1-.15,1.26c-.01.12-.1.21-.22.21-.14,0-.24-.08-.22-.25l.19-1.63h-.65v1.66c0,.12-.1.23-.22.23-.14,0-.24-.11-.24-.23v-1.66h-.49c-.11,0-.2-.09-.2-.2s.09-.21.2-.21h1.92c.13,0,.17.11.22.21l.59,1.26.6-1.29c.05-.1.11-.21.22-.21h.04c.11,0,.21.05.22.14l.24,1.96c.02.14-.09.22-.22.22-.12,0-.21-.08-.22-.21l-.15-1.26Z"></path><g><path class="cls-1" d="m159.29,54.01c.05-.11.11-.13.19-.13h.04c.1,0,.18.09.19.19l.2,1.64c.01.1-.08.2-.2.21-.11,0-.22-.07-.23-.18l-.12-1.04-.4.83c-.04.08-.11.18-.24.18s-.2-.1-.23-.18l-.4-.83-.12,1.04c-.01.11-.11.19-.23.18-.11,0-.21-.11-.2-.21l.2-1.64c.01-.1.09-.19.19-.19h.04c.08,0,.14.02.19.13l.56,1.18.56-1.18Z"></path><path class="cls-1" d="m161.21,53.87c.29,0,.53.11.71.28.08.07.06.22-.03.29-.08.07-.2.07-.27,0-.11-.1-.25-.16-.41-.16-.33,0-.58.27-.58.62s.25.62.58.62c.16,0,.31-.06.41-.16.07-.06.19-.07.27,0,.08.07.1.22.03.29-.18.17-.43.28-.71.28-.58,0-1.01-.46-1.01-1.03s.44-1.03,1.01-1.03Z"></path></g><path class="cls-1" d="m161.87,53.68h-4.17c-.08,0-.14-.06-.14-.14s.06-.14.14-.14h4.17c.08,0,.14.06.14.14s-.06.14-.14.14Z"></path></g></svg> 