<?xml version="1.0" encoding="utf-8"?>
<!-- Generator: Adobe Illustrator 12.0.0, SVG Export Plug-In  -->
<!DOCTYPE svg PUBLIC "-//W3C//DTD SVG 1.1//EN" "http://www.w3.org/Graphics/SVG/1.1/DTD/svg11.dtd" [
	<!ENTITY ns_flows "http://ns.adobe.com/Flows/1.0/">
	<!ENTITY ns_svg "http://www.w3.org/2000/svg">
	<!ENTITY ns_xlink "http://www.w3.org/1999/xlink">
]>
<svg  version="1.1" xmlns="&ns_svg;" xmlns:xlink="&ns_xlink;" xmlns:a="http://ns.adobe.com/AdobeSVGViewerExtensions/3.0/"
	 width="266" height="86" viewBox="-0.7211914 -0.2319336 266 86" enable-background="new -0.7211914 -0.2319336 266 86"
	 xml:space="preserve">
<defs>
</defs>
<rect opacity="0" fill="#FFFFFF" width="264.9995117" height="85.0004883"/>
<path fill-rule="evenodd" clip-rule="evenodd" fill="#FE1308" d="M132.4995117,11.4892578
	c64.5693359,0,116.9140625,13.8842773,116.9140625,31.0112305c0,17.1259766-52.3447266,31.0107422-116.9140625,31.0107422
	c-64.5703125,0-116.9145508-13.8847656-116.9145508-31.0107422C15.5849609,25.3735352,67.9291992,11.4892578,132.4995117,11.4892578
	L132.4995117,11.4892578z"/>
<path fill="#FFFFFF" d="M232.7651367,50.8891602v-2.6953125h1.2910156c0.3417969,0,0.59375,0.0605469,0.7558594,0.1826172
	c0.1611328,0.1220703,0.2421875,0.3115234,0.2421875,0.5673828c0,0.1513672-0.0341797,0.2822266-0.1044922,0.3886719
	c-0.0683594,0.1083984-0.1748047,0.1992188-0.3203125,0.2714844c0.1181641,0.0458984,0.2021484,0.1074219,0.2509766,0.1845703
	s0.0761719,0.2138672,0.0830078,0.4091797c0.0048828,0.0546875,0.0087891,0.1289063,0.0117188,0.2207031
	c0.0078125,0.2177734,0.0458984,0.34375,0.1113281,0.3779297v0.0927734h-0.7226563
	c-0.0351563-0.0947266-0.0556641-0.2255859-0.0605469-0.3916016c-0.0048828-0.1650391-0.0097656-0.2705078-0.0146484-0.3134766
	c-0.0107422-0.1035156-0.046875-0.1816406-0.1064453-0.2304688s-0.1494141-0.0722656-0.2685547-0.0722656h-0.4609375v1.0078125
	H232.7651367L232.7651367,50.8891602z M233.4526367,49.3481445h0.5136719c0.1396484,0,0.2412109-0.0253906,0.3066406-0.0771484
	c0.0654297-0.0507813,0.0986328-0.1328125,0.0986328-0.2451172c0-0.0986328-0.0332031-0.171875-0.0957031-0.2197266
	c-0.0634766-0.0488281-0.1601563-0.0732422-0.2910156-0.0732422h-0.5322266V49.3481445L233.4526367,49.3481445z
	 M233.8364258,46.4760742c0.8525391,0,1.6240234,0.3457031,2.1845703,0.9042969
	c0.5585938,0.5585938,0.9042969,1.3310547,0.9042969,2.1835938c0,0.8535156-0.3457031,1.625-0.9042969,2.1845703
	c-0.5595703,0.5585938-1.3320313,0.9042969-2.1845703,0.9042969s-1.625-0.3457031-2.1845703-0.9042969
	c-0.5576172-0.5595703-0.9042969-1.3310547-0.9042969-2.1845703c0-0.8525391,0.3466797-1.625,0.9042969-2.1835938
	C232.2114258,46.8217773,232.9838867,46.4760742,233.8364258,46.4760742L233.8364258,46.4760742z M235.7241211,47.6772461
	c-0.4833984-0.4824219-1.1513672-0.78125-1.8876953-0.78125c-0.7373047,0-1.4042969,0.2988281-1.8867188,0.78125
	c-0.4833984,0.4833984-0.78125,1.1503906-0.78125,1.8867188s0.2978516,1.4042969,0.78125,1.8876953
	c0.4824219,0.4824219,1.1494141,0.78125,1.8867188,0.78125c0.7363281,0,1.4042969-0.2988281,1.8876953-0.78125
	c0.4824219-0.4824219,0.78125-1.1503906,0.78125-1.8876953C236.5053711,48.8276367,236.206543,48.1606445,235.7241211,47.6772461
	L235.7241211,47.6772461z M153.6538086,46.081543c0.0605469-0.3144531,0.1582031-0.7070313,0.4980469-0.8251953
	c0.2539063-0.0117188,0.4003906,0.2451172,0.5566406,0.4091797c0.3056641,0.4111328,0.6953125,0.7480469,1.1035156,1.0556641
	c0.0546875,0.0400391,0.0732422,0.1113281-0.0039063,0.2041016C154.831543,48.2583008,153.4545898,48.059082,153.6538086,46.081543
	L153.6538086,46.081543z M70.2724609,44.0063477c0.5732422-0.0576172,1.0429688,0.5888672,0.8208008,1.1201172
	c-0.4135742,0.9335938-1.7670898,1.5898438-2.7333984,1.6503906C68.4086914,45.5473633,68.8237305,44.1987305,70.2724609,44.0063477
	L70.2724609,44.0063477z M194.5180664,42.0649414c0.5009766-0.0952148,1.1494141-0.2431641,1.5039063,0.1611328
	c0.2548828,0.2924805,0.1025391,1.0146484-0.1875,1.3505859c-0.7744141,0.8945313-1.5263672,1.4755859-2.5371094,2.0898438
	c-0.453125,0.2744141-1.1396484,0.2958984-1.40625-0.1503906c-0.3662109-0.6113281-0.1455078-1.5039063,0.3544922-2.0458984
	C192.8530273,42.8100586,193.6206055,42.2407227,194.5180664,42.0649414L194.5180664,42.0649414z M123.9506836,41.5244141
	c0.5766602-0.0727539,1.1708984-0.0605469,1.7387695,0.0703125c0.3759766,0.0864258,0.5712891,0.4868164,0.5761719,0.8613281
	c0.0229492,1.7915039-1.5195313,5.4077148-3.2583008,6.2670898c-1.3398438,0.4648438-2.9555664-0.5087891-2.996582-1.9501953
	c-0.0336914-0.4775391,0.2172852-1.3007813,0.3999023-1.71875
	C121.1337891,43.3999023,122.1518555,41.7348633,123.9506836,41.5244141L123.9506836,41.5244141z M221.996582,41.4042969
	c0.4726563-0.1679688,1.0126953-0.1948242,1.4863281-0.0058594c0.4833984,0.206543,0.6884766,0.8173828,0.5224609,1.3007813
	c-0.2832031,1.4594727-2.8320313,4.3911133-4.5927734,3.6811523c-0.5078125-0.2011719-0.7119141-0.7919922-0.6796875-1.2998047
	C218.8374023,43.2338867,220.3481445,41.9873047,221.996582,41.4042969L221.996582,41.4042969z M80.2768555,35.2407227
	c0.7998047-0.5102539,1.1240234-0.0585938,1.3251953,0.637207c0.5571289,1.9291992,0.3295898,6.4853516-0.2827148,8.3530273
	c-0.293457,0.8955078-1.2456055,2.6298828-2.2368164,3.2695313C78.4086914,44.9516602,77.9204102,37.0258789,80.2768555,35.2407227
	L80.2768555,35.2407227z M155.1811523,34.1777344c0.1806641-0.1791992,0.4394531-0.2983398,0.5917969-0.1669922
	c0.4335938,0.4755859,0.3496094,1.1665039,0.2998047,1.7573242c-0.1181641,1.2265625-0.4414063,2.519043-1.3447266,3.4106445
	c-0.15625,0.1464844-0.5175781,0.3232422-0.625,0.0366211C153.3911133,37.7451172,154.0532227,35.2944336,155.1811523,34.1777344
	L155.1811523,34.1777344z M174.8276367,31.9365234c-0.0126953-0.1586914,0.1357422-0.2744141,0.2871094-0.2661133
	c2.2841797-0.0649414,4.609375,0.2402344,6.7304688,1.1230469c1.1425781,0.5058594,2.2050781,1.3012695,2.8232422,2.4067383
	c1.0791016,1.9306641,0.2558594,5.1411133-0.8154297,6.9145508c-1.625,2.7705078-7.6806641,5.2744141-9.65625,4.8554688
	c-0.8515625-0.1796875-0.2919922-1.9628906-0.140625-2.9316406
	C174.9008789,39.934082,174.7495117,36.0668945,174.8276367,31.9365234L174.8276367,31.9365234z M97.3686523,42.4765625
	c-0.4501953,0.6108398-0.4453125,1.4702148-0.1005859,2.1293945c0.8920898,1.8066406,3.5961914,3.3017578,5.5463867,3.90625
	c0.4208984,0.1298828,0.5913086,0.3310547,0.3808594,0.4667969c-1.2651367,0.5400391-2.6669922,0.4814453-4.0283203,0.4716797
	c-0.7246094-0.0117188-1.5478516-0.0898438-2.159668,0.3710938c-0.3789063,0.2929688-0.359375,0.8183594-0.3061523,1.2460938
	c0.0522461,0.4111328,0.362793,0.7851563,0.784668,0.8515625C98.6479492,52.1186523,99.8334961,52.0385742,101,51.9165039
	c1.0668945-0.1367188,2.1474609-0.3027344,3.144043-0.7294922c0.6708984-0.2861328,1.3574219-0.5683594,1.940918-1.0136719
	c1.1401367-0.8554688,0.7592773-2.140625-0.3183594-2.8496094c-1.6323242-1.0419922-3.6533203-1.4707031-5.519043-2.7636719
	c-0.3720703-0.2558594-0.7075195-0.7294922-0.5078125-1.1933594c0.5991211-1.440918,3.5761719-1.5380859,4.8803711-1.5874023
	c0.6972656-0.0268555,1.0888672-0.3642578,0.71875-1.0756836c-0.3886719-0.5566406-1.1020508-0.7216797-1.737793-0.7797852
	C101.6323242,39.8305664,98.5683594,40.828125,97.3686523,42.4765625L97.3686523,42.4765625z M108.4082031,41.0390625
	c-1.3212891,1.1933594-0.7553711,3.4145508,0.2739258,4.5776367c1.9077148,1.8515625,3.4804688,1.7138672,5.0761719,2.6914063
	c0.3422852,0.2089844,0.3662109,0.8017578,0.0454102,0.9726563c-1.1030273,0.6054688-3.7143555,0.2460938-4.8945313-0.0380859
	c-0.3867188-0.0683594-0.8774414-0.1386719-1.1713867,0.1875c-0.8920898,1.1582031,0.7089844,2.6621094,2.1035156,2.7148438
	c2.0913086,0.0888672,4.862793-0.1611328,6.1411133-2.0371094c1.8530273-2.7226563-2.9536133-4.4980469-4.6020508-5.6865234
	c-0.5200195-0.4316406-1.6894531-1.5673828-0.7514648-2.1772461c1.1088867-0.8867188,3.2016602-0.0029297,3.8833008-0.7763672
	c0.2753906-0.5693359-0.2026367-1.1176758-0.6489258-1.4194336
	C112.5756836,39.2822266,109.4350586,40.0629883,108.4082031,41.0390625L108.4082031,41.0390625z M194.3491211,39.3793945
	c-0.6162109,0.1181641-1.2314453,0.2709961-1.7958984,0.5478516c-1.5830078,0.7099609-3.46875,3.0078125-3.7919922,4.7412109
	c-0.2841797,1.5253906,0.3115234,4.0439453,2.125,4.2763672c0.7587891,0.0761719,1.5429688,0.0820313,2.2792969-0.1513672
	c2.4365234-0.6269531,4.5087891-2.5009766,5.4628906-4.8203125c0.5839844-1.5117188,0.9511719-3.1147461-0.5898438-4.105957
	C196.9399414,39.1992188,195.5834961,39.1713867,194.3491211,39.3793945L194.3491211,39.3793945z M121.1992188,40.3442383
	c-1.9023438,1.1723633-3.2519531,4.4443359-3.6191406,6.4150391c-0.1972656,1.078125,0.1577148,2.2412109,0.9375,3.0117188
	c0.9194336,0.8476563,2.0917969,1.4394531,3.3364258,1.6044922c0.9057617,0.1455078,1.9047852,0.1015625,2.6850586-0.4345703
	c0.8623047-0.5566406,1.3603516-1.5,1.9077148-2.2949219c0.1630859-0.2353516,0.2558594-0.1875,0.3530273-0.0175781
	c0.8417969,1.4765625,1.574707,2.8603516,3.4545898,2.7421875c2.246582-0.2695313,6.8398438-3.4482422,8.7900391-4.7529297
	c0.9550781-0.6005859,1.1416016-1.9208984,0.8613281-2.9335938c-0.2763672-0.7773438-1.1533203-1.6157227-1.859375-1.4946289
	c-0.6425781,0.1108398-0.2304688,1.5385742-0.6777344,2.2036133c-0.609375,1.0927734-4.6499023,3.0605469-5.8613281,3.6542969
	c-3.2158203,1.3496094-2.6347656-0.8730469-2.621582-3.3105469c0.0068359-1.2871094,0.0483398-2.574707,0.0092773-3.8608398
	c-0.003418-0.3227539-0.1533203-0.6484375-0.4389648-0.8149414
	C126.5039063,38.8457031,123.0717773,39.0493164,121.1992188,40.3442383L121.1992188,40.3442383z M219.0366211,40.1176758
	c-1.4804688,0.9833984-2.6513672,2.8212891-2.75,4.6123047c-0.109375,1.3759766,0.2578125,2.9296875,1.3984375,3.8144531
	c2.2568359,1.75,4.5546875,0.4560547,6.1806641-1.5566406c1.3154297,0.8222656,2.0458984,5.3945313,1.7724609,6.8427734
	c-0.0214844,0.1103516-0.1503906,0.1347656-0.2558594,0.1259766c-7.2167969-0.6083984-16.2431641-0.9501953-23.2519531,0.0996094
	c-3.4560547,0.5175781-10.3642578,2.796875-7.5078125,6.4375c1.7802734,2.2685547,6.0068359,2.6621094,8.8564453,2.5732422
	c1.5527344-0.0488281,3.4658203-0.2763672,4.5878906-1.4990234c0.2451172-0.2666016,0.2412109-0.8466797-0.1777344-0.9277344
	c-0.4853516-0.0947266-0.9775391-0.0712891-1.4658203-0.0654297c-2.5976563,0.0302734-5.7011719-0.1376953-8.0351563-1.1572266
	c-0.2988281-0.1308594-0.7382813-0.3388672-0.6523438-0.7236328c0.1220703-0.546875,0.7128906-0.7617188,1.1787109-0.9541016
	c5.6630859-2.3339844,21.0048828-1.8300781,26.3320313-0.7714844c1.6591797,0.3291016,2.7910156,0.9589844,2.9697266-1.2412109
	c0.2216797-2.7265625,0.28125-5.8632813-0.7412109-8.3740234c-0.3544922-0.9755859-0.9375-1.8222656-1.2744141-2.828125
	c-0.3417969-1.0205078,0.9248047-2.1811523,0.8574219-2.9658203c-0.0605469-1.6967773-2.3398438-3.0244141-3.9042969-2.8623047
	C221.7241211,38.7363281,220.2006836,39.3261719,219.0366211,40.1176758L219.0366211,40.1176758z M209.0112305,38.3632813
	c-0.5712891,0.6967773-0.1474609,1.6987305-0.5966797,2.4467773c-0.7128906,1.1704102-2.8417969,4.5976563-4.2529297,4.921875
	c-0.3847656-0.0341797-0.6220703-0.4121094-0.6679688-0.7666016c-0.1923828-1.4433594,0.3125-3.9511719-0.2080078-5.1708984
	c-0.3291016-0.7709961-2.2919922-0.4257813-2.3574219,0.7299805c-0.2695313,2.3393555-0.2207031,6.409668,1.4179688,8.1723633
	c0.4863281,0.546875,1.3408203,0.7050781,2.0019531,0.4013672c2.015625-0.8671875,2.9736328-2.25,4.1650391-3.6640625
	c0.4052734,1.1542969,1.2548828,3.3671875,2.6269531,3.6845703c0.8984375,0.2392578,1.96875,0.2626953,2.7353516-0.3427734
	c0.5595703-0.4150391,0.9306641-1.1318359,0.7871094-1.8330078c-0.0566406-0.3085938-0.3652344-0.4755859-0.6376953-0.5566406
	c-0.4599609-0.0380859-0.9042969,0.1386719-1.3632813,0.1337891c-1.5136719,0.0117188-1.5234375-0.8300781-1.4882813-2.1220703
	c0.0439453-1.7006836,0.0898438-3.4018555,0.1513672-5.1010742c0.0107422-0.3945313-0.0537109-0.8525391-0.4082031-1.0883789
	C210.3344727,37.9023438,209.4702148,37.7900391,209.0112305,38.3632813L209.0112305,38.3632813z M91.7329102,32.3198242
	c-0.6323242,0.1835938-1.0610352,0.8974609-0.9135742,1.5429688c0.0581055,0.4814453,0.4453125,0.8623047,0.8876953,1.0234375
	c0.8129883,0.3364258,1.890625-0.2363281,1.9375-1.1494141C93.7792969,32.7412109,92.6420898,31.9477539,91.7329102,32.3198242
	L91.7329102,32.3198242z M155.3305664,31.2998047c-2.2695313,0.6962891-3.6044922,4.3256836-3.3466797,7.4130859
	c0.0927734,1.1103516,0.6933594,2.0859375,0.8457031,3.1777344c-0.0703125,1.0629883-1.8066406,2.1098633-1.5546875,5.1040039
	c0.2548828,3.0234375,3.5859375,4.4091797,6.2285156,2.4375c0.8417969-0.6279297,1.3261719-1.6269531,2.15625-2.2558594
	c0.5947266-0.4501953,1.3701172-0.6347656,1.9199219-1.15625c0.78125-0.8896484,0.3818359-1.796875-0.8466797-1.7197266
	c-0.7382813,0.0185547-1.3369141,0.5068359-1.9257813,0.8896484c-0.4160156,0.2802734-0.890625,0.6328125-1.4228516,0.4970703
	c-0.765625-0.2919922-1.1103516-1.0927734-1.5048828-1.7490234c-0.1953125-0.3984375-0.5429688-0.8466797-0.3212891-1.3071289
	c0.9248047-1.40625,1.9892578-2.4316406,2.5273438-4.3076172c0.4746094-1.8325195,0.4931641-4.918457-0.8427734-6.4174805
	C156.7788086,31.3735352,156.0180664,31.1181641,155.3305664,31.2998047L155.3305664,31.2998047z M174.9633789,28.824707
	c-0.8867188,0.1367188-1.8632813,0.3105469-2.5087891,0.9853516c-0.5419922,0.7773438-0.5117188,1.7783203-0.4414063,2.6796875
	c0.3964844,5.0581055-0.0410156,7.6142578-0.8398438,12.2392578c-0.390625,2.7216797,0.2460938,5.1503906,3.5058594,5.1142578
	c4.1982422-0.0859375,9.078125-1.7841797,11.3681641-5.5390625c1.4072266-2.2592773,1.8037109-5.0014648,1.6689453-7.6235352
	c-0.1884766-3.6611328-2.7333984-5.7495117-5.9736328-6.9443359
	C179.581543,28.9711914,177.2573242,28.4814453,174.9633789,28.824707L174.9633789,28.824707z M42.1171875,27.1425781
	c-0.8959961,0.934082-1.0473633,2.2788086-1.7114258,3.3623047c-1.3725586,2.2421875-3.4365234,3.921875-5.2226563,5.7929688
	c-0.300293,0.2929688-0.4204102,0.8066406-0.1645508,1.1640625c0.3535156,0.2617188,0.8320313,0.2070313,1.2402344,0.1289063
	c0.8154297-0.1416016,1.4272461-0.7490234,2-1.2978516c0.918457-0.8105469,2.137207-2.5454102,3.2426758-3.0585938
	c0.0620117,1.2651367,0.0024414,2.53125-0.059082,3.7954102c-0.0849609,2.237793-0.1894531,4.4755859-0.4150391,6.703125
	c-0.300293,2.4140625-0.6054688,4.8291016-0.9331055,7.2412109c-0.0078125,0.1816406,0.0239258,0.3623047,0.0419922,0.5439453
	c0.4277344,0.5136719,1.1123047,0.8125,1.78125,0.7109375c0.4458008-0.0244141,0.8071289-0.3837891,0.9453125-0.7910156
	c0.2631836-0.7441406,0.3754883-1.5283203,0.5522461-2.2958984c0.4047852-1.7822266,0.8579102-3.5527344,1.3447266-5.3125
	c0.7744141-2.8422852,1.7915039-5.6108398,2.871582-8.3481445c0.2993164-0.7631836,0.6464844-1.5112305,1.0922852-2.2006836
	c0.3686523-0.5375977,0.7524414-1.2041016,1.1674805-0.3251953c0.2412109,0.6508789,0.265625,1.3525391,0.3369141,2.034668
	c0.2143555,2.5610352,0.3876953,5.1333008,0.2993164,7.7026367c-0.0571289,1.3662109-0.1557617,2.7294922-0.284668,4.0888672
	c-0.0410156,0.5849609-0.1791992,1.2099609,0.1005859,1.7597656c0.3994141,0.8574219,1.6865234,1.0625,2.355957,0.4111328
	c0.4106445-0.3681641,0.5678711-0.9150391,0.7631836-1.4111328c1.3789063-3.7109375,2.7685547-7.4233398,3.9335938-11.2089844
	c0.0786133-0.253418,0.1586914-0.5439453,0.3837891-0.6938477c0.253418-0.1689453,0.5732422,0.0571289,0.5986328,0.3525391
	c0.253418,2.9838867,0.359375,5.9819336,0.5166016,8.972168c0.1079102,1.3447266,0.1816406,2.6923828,0.1860352,4.0410156
	c-0.7641602,0.1865234-1.4580078-0.2568359-2.1977539-0.3378906c-0.5126953,0.0400391-0.9223633,0.5419922-0.8881836,1.0478516
	c-0.0249023,0.4716797,0.3378906,0.8496094,0.7197266,1.0683594c0.706543,0.4052734,1.4921875,0.6552734,2.2856445,0.8203125
	c0.0400391,1.109375-0.059082,2.2177734-0.0439453,3.328125c0.003418,0.8574219-0.081543,1.7363281,0.1533203,2.5732422
	c0.309082,1.1298828,1.3569336,2.0488281,2.5439453,2.1005859c0.4726563,0.0292969,1.019043-0.1230469,1.2709961-0.5576172
	c0.2763672-0.4667969,0.2709961-1.1328125-0.1166992-1.5371094c-0.2539063-0.2910156-0.6396484-0.4023438-0.9321289-0.6386719
	c-0.2949219-0.5566406-0.2788086-1.2099609-0.2836914-1.8222656c0.0239258-1.1152344,0.0917969-2.2285156,0.121582-3.3427734
	c1.7861328-0.0390625,3.0571289-0.3955078,4.59375-0.9140625c0.6098633,1.2685547,1.3857422,2.40625,3.3525391,3.2851563
	c1.2290039,0.5546875,2.6870117,0.6357422,3.940918,0.1132813c1.6411133-0.6650391,3.1958008-1.7265625,4.3862305-2.5605469
	c0.6181641,0.984375,1.4775391,2.1152344,2.6713867,2.6640625c2.2119141,1.1367188,4.1855469-0.296875,5.796875-1.7597656
	c0.9814453-0.9511719,1.7851563-2.0722656,2.421875-3.2783203c0.456543,1.3789063,1.7885742,3.5292969,3.4814453,3.3740234
	c2.2954102-0.2734375,5.1469727-3.8828125,5.1469727-6.0820313c0.0039063-0.5019531-0.2524414-1.0244141-0.6992188-1.2724609
	c-0.9370117-0.4931641-1.2978516,1.1269531-1.699707,1.7431641c-0.496582,0.7929688-1.0644531,1.5839844-1.8544922,2.1113281
	c-1.2045898,0.7666016-1.8833008,0.0117188-1.9970703-1.2109375c-0.0678711-1.3691406,0.0522461-2.7363281,0.1499023-4.1005859
	c0.0463867-0.7519531,0.1733398-1.5009766,0.140625-2.2558594c-0.0366211-1.1987305-2.2509766-1.1391602-2.3969727-0.3447266
	c-0.0654297,0.5864258-0.0585938,1.1494141-0.1416016,1.7197266c-0.1552734,1.3808594-0.6176758,2.7148438-1.3017578,3.921875
	c-0.9550781,1.6582031-2.0913086,3.2714844-3.6650391,4.3974609c-1.496582,0.9716797-3.2924805,0.7832031-4.1010742-1.1679688
	c2.3295898-2.0791016,3.262207-3.0068359,4.0966797-6.2783203c0.4960938-1.9443359,0.3706055-5.9042969-0.0488281-7.9160156
	c-0.2319336-1.1132813-0.9648438-2.3476563-2.0864258-2.7016602c-0.9995117-0.315918-2.1796875-0.0947266-3.0576172,0.5048828
	c-1.0043945,0.6860352-1.5522461,1.8598633-1.8613281,3.0048828c-0.9155273,3.3862305-0.6064453,7.8500977-0.0849609,11.3364258
	c0.0400391,0.3349609,0.1040039,0.6982422-0.0478516,1.0175781c-0.1904297,0.3681641-0.5722656,0.5722656-0.9047852,0.7939453
	c-0.9589844,0.5761719-1.9160156,1.1806641-2.9750977,1.5576172c-0.8305664,0.2792969-1.7558594,0.4365234-2.605957,0.1425781
	c-0.6850586-0.2753906-1.2685547-0.8798828-1.4194336-1.6142578c-0.0512695-0.2060547,0.0488281-0.4140625,0.2358398-0.5058594
	c0.9428711-0.5146484,1.9023438-1.015625,2.7685547-1.65625c0.8334961-0.6435547,1.5981445-1.5126953,1.7446289-2.5917969
	c0.1030273-0.9052734-0.0239258-1.9384766-0.715332-2.5961914c-0.6420898-0.4956055-1.4501953-0.7939453-2.2661133-0.7714844
	c-3.418457-0.0253906-4.8022461,2.902832-4.8828125,6.1567383c-0.8818359,0.6191406-3.0913086,1.1796875-4.1054688,1.0947266
	c-0.2558594-6.2275391-0.3452148-13.9838867-1.5419922-20.0820313c-0.2382813-0.8842773-1.3525391-1.215332-2.1474609-0.9316406
	c-0.3730469,0.1186523-0.5546875,0.4960938-0.6635742,0.8432617c-1.0717773,3.2016602-2.5454102,7.5083008-3.831543,10.7426758
	c-0.1220703,0.2163086-0.2138672,0.1010742-0.2568359-0.2617188c-0.1464844-2.9760742-0.3388672-8.2265625-1.8037109-10.5537109
	c-1.3413086-2.1845703-4.0229492,1.5336914-4.6728516,2.6606445c-1.1425781,1.9794922-1.7651367,3.8710938-2.4833984,5.8017578
	c-0.0976563,0.2583008-0.1987305,0.2587891-0.2104492,0.0493164c-0.1650391-2.8120117-0.0224609-5.8623047-0.1186523-8.5932617
	c-0.0209961-0.5317383,0.1044922-1.1303711-0.2451172-1.5849609C43.3310547,26.7177734,42.5307617,26.6738281,42.1171875,27.1425781
	L42.1171875,27.1425781z"/>
<path d="M132.4995117,5.2978516c34.4335938,0,65.6162109,4.1206055,88.1953125,10.7832031
	c22.7402344,6.7094727,36.8046875,16.0463867,36.8046875,26.4194336s-14.0654297,19.7089844-36.8046875,26.4189453
	c-22.5791016,6.6630859-53.7617188,10.7832031-88.1953125,10.7832031s-65.6162109-4.1201172-88.1953125-10.7832031
	C21.5644531,62.2094727,7.4995117,52.8735352,7.4995117,42.5004883s14.0649414-19.7099609,36.8051758-26.4194336
	C66.8833008,9.418457,98.065918,5.2978516,132.4995117,5.2978516L132.4995117,5.2978516z M220.4399414,16.9492188
	c-22.4980469-6.6381836-53.5888672-10.7441406-87.9404297-10.7441406s-65.4423828,4.105957-87.9404297,10.7441406
	C22.222168,23.5395508,8.4067383,32.5776367,8.4067383,42.5004883S22.222168,61.4614258,44.559082,68.0522461
	c22.4980469,6.6376953,53.5888672,10.7441406,87.9404297,10.7441406s65.4423828-4.1064453,87.9404297-10.7441406
	c22.3359375-6.5908203,36.1523438-15.6289063,36.1523438-25.5517578S242.7758789,23.5395508,220.4399414,16.9492188
	L220.4399414,16.9492188z"/>
</svg>
