<?xml version="1.0" encoding="UTF-8" standalone="no"?>
<svg width="235px" height="122px" viewBox="0 0 235 122" version="1.1" xmlns="http://www.w3.org/2000/svg" xmlns:xlink="http://www.w3.org/1999/xlink" xmlns:sketch="http://www.bohemiancoding.com/sketch/ns">
    <!-- Generator: Sketch 3.3.3 (12081) - http://www.bohemiancoding.com/sketch -->
    <title>Slice 1</title>
    <desc>Created with Sketch.</desc>
    <defs></defs>
    <g id="Page-1" stroke="none" stroke-width="1" fill="none" fill-rule="evenodd" sketch:type="MSPage">
        <g id="logo" sketch:type="MSLayerGroup">
            <g id="Group" sketch:type="MSShapeGroup">
                <path d="M67.7814012,6.53712915 C67.8061036,6.69019188 67.9112015,6.83154982 67.8528138,6.96435424 C68.1582265,7.66754244 68.8476507,7.98627306 69.0259578,8.81731365 C69.2186372,9.00414022 69.4086219,9.1936679 69.4876699,9.49439114 C70.2467102,10.0044502 70.872357,10.648214 71.2649021,11.5251734 C71.5186641,11.5323764 71.5667217,11.7453137 71.798476,11.7745756 C72.0657121,12.3967306 72.5849136,12.7676827 72.8647255,13.3776827 C72.9761113,13.4677196 73.0349482,13.6113284 73.2199923,13.6270849 C73.3664107,13.8485756 73.4140192,14.169107 73.6462226,14.3041624 C73.8317159,15.3062731 74.5126065,15.8113801 74.8193666,16.6910406 C74.866975,16.8098893 75.0331555,16.8098893 75.1036699,16.9048782 C75.4274971,17.7683321 75.954334,18.4278524 76.2413321,19.3277712 C76.7807447,19.9512768 77.08481,20.8097786 77.4140269,21.6439705 C77.3893244,21.8704133 77.4742111,21.9874613 77.4504069,22.2143542 C77.6929405,22.3156458 77.6718311,22.6807454 77.8766372,22.8198524 C77.8492399,22.9783173 77.9242457,23.03369 77.912119,23.1763985 C78.149263,23.5797638 78.3783225,23.9921328 78.6590326,24.3518303 L78.6590326,24.5656679 C79.7252821,26.4298819 80.3760806,28.7118672 81.6803724,30.3374834 C81.7270825,30.6827749 81.9256008,30.8759041 82.0356392,31.1572694 C81.9377274,31.510214 82.1946334,31.580893 82.2844607,31.8699114 C82.3176967,31.976155 82.2885029,32.1229151 82.3199424,32.2264576 C82.3491363,32.3223469 82.4380653,32.3826716 82.4627678,32.4758598 C82.4973512,32.6118155 82.4609712,32.7725314 82.4982495,32.9035351 C82.5242994,32.9953727 82.6222111,33.0849594 82.6406257,33.1885018 C82.7120384,33.5824133 82.608737,33.9920812 82.6770058,34.4715277 C82.9581651,34.9266642 82.9343608,35.5195572 83.1032361,36.0390701 C83.1737505,36.2551587 83.3210672,36.6301624 83.281094,37.036679 C83.5501267,37.2383616 83.4221228,37.6012103 83.4939846,37.8915793 C83.5905489,38.2814391 83.946714,38.9116974 83.8851823,39.4951365 C84.0284568,39.9691808 84.3181497,40.2955646 84.3114127,40.9204207 C84.5323877,41.2927232 84.6532054,41.7663173 84.6671286,42.3457048 C84.6895854,42.4659041 84.8642994,42.4330406 84.8809175,42.5595424 C84.9231363,42.6594834 84.9195432,42.8053432 84.9159501,42.9516531 C85.1095278,43.1979041 85.1616276,43.5846125 85.271666,43.9136974 C85.5797735,44.3413727 85.8407217,44.8163173 85.8762035,45.5172546 C86.227428,45.8643469 86.1914971,46.3266863 86.3379155,46.7998303 C86.3536353,46.8520517 86.4304376,46.9173284 86.44481,46.9781033 C86.4964607,47.1950923 86.4380729,47.4381919 86.4802917,47.6551808 C86.4973589,47.7429668 86.583144,47.8221993 86.6231171,47.9401476 C86.6532092,48.0306347 86.6267102,48.1539852 86.659048,48.2251144 C86.7102495,48.3394613 86.8692438,48.4164428 86.9078695,48.5456458 C86.9429021,48.6640443 86.8867601,48.8175572 86.9078695,48.9377565 C86.9253858,49.0385978 87.0156622,49.1110775 87.0502457,49.2227232 C87.087524,49.3451734 87.0583301,49.4860812 87.0861766,49.5792694 C87.1463608,49.7841033 87.3143378,50.1307454 87.2635854,50.5413137 C87.7675163,51.1882288 87.670952,52.4374908 87.8681228,53.3918819 C88.2269827,53.6268782 88.0360998,54.3530258 88.1169443,54.9594244 C88.1358081,55.0985314 88.2283301,55.2331365 88.2584223,55.3870996 C88.3428599,55.8161255 88.2215931,56.3041255 88.4362802,56.527417 C88.4362802,56.9780517 88.4964645,57.3701624 88.4726603,57.8455572 C88.4448138,57.9684576 88.5058964,58.0022214 88.5791056,58.0238303 C88.3590288,58.3614686 88.5229635,59.0840148 88.4726603,59.5913727 C88.4632284,59.6953653 88.5395816,59.7142731 88.5791056,59.7696458 C88.8059194,62.5914022 88.6752207,65.6089889 88.6145873,68.6418819 C88.4704146,68.8264576 88.3976545,69.2518819 88.5791056,69.4616679 C88.6271631,69.6169815 88.4412207,69.5377491 88.4726603,69.6755055 C88.5710211,70.3080148 88.2979463,70.8275277 88.2584223,71.3141771 C88.2440499,71.4956015 88.2907601,71.6873801 88.2584223,71.8850111 C88.2395585,72.0052103 88.1394012,72.1182066 88.1169443,72.2406568 C87.9143839,73.3377565 88.3401651,74.634738 87.8681228,75.4833358 C87.9372898,75.8812989 87.7580845,76.2108339 87.690714,76.623203 C87.6152591,77.0841919 87.7756008,77.7031956 87.5133052,77.9764576 L87.5133052,78.5112768 C87.2873896,78.6800959 87.348023,78.816952 87.2285528,79.1527897 C87.1966641,79.2432768 87.0996507,79.2954982 87.0861766,79.3666273 C87.0012898,79.8087085 87.1472591,80.0986273 86.8723877,80.3642362 C86.8144491,80.4205092 86.7066564,80.4520221 86.659048,80.5069446 C86.5494587,80.634797 86.5296967,80.8657417 86.4457083,81.0413137 C86.2876123,81.3694982 86.0751708,81.6490627 85.8766526,81.8250849 C85.7374203,82.6120074 85.2514549,83.0513875 84.7035086,83.4286421 C84.2027217,84.0534982 83.4903916,84.5793137 82.8903455,85.1744576 C82.6886833,85.3752399 82.3635086,85.7200812 81.9305413,85.7804059 C81.7926564,85.9451734 81.6080614,86.0302583 81.4328983,86.136952 C81.079428,86.3525904 80.7632361,86.5074539 80.4021305,86.7068856 C79.9911708,86.9342288 79.4185221,87.0688339 79.0866104,87.4195277 C78.6644223,87.5064133 78.4995893,87.8517048 77.9493973,87.8111882 C77.8402572,87.8445018 77.8465451,87.9935129 77.7360576,88.0250258 C76.8826987,88.2388635 76.4061651,88.8304059 75.5316967,89.0226347 C74.876856,89.4588635 74.0499962,89.7231218 73.4701612,90.2345314 C72.4434357,90.3457269 71.7252668,90.7657491 70.875501,91.0538672 C70.5925451,91.4945978 70.0567255,91.6823247 69.4885681,91.8371882 C69.1723762,92.4741993 69.63319,92.9977638 69.6664261,93.6901476 C69.9341113,94.0984649 70.0594203,94.6503911 70.0931056,95.2937048 C70.0980461,95.4076015 70.2125758,95.4116531 70.2354818,95.5075424 C70.209881,95.7465904 70.2718618,95.8983026 70.2709635,96.1134908 C70.5346065,96.5258598 70.7726488,96.9643395 70.875501,97.5387749 C71.1023148,97.8331956 71.142737,98.3157934 71.4441075,98.5363838 C71.4243455,98.6989004 71.5069866,98.7587749 71.4795893,98.9284945 C71.7679347,99.4115424 72.0284338,99.9225018 72.2265029,100.496037 C72.2184184,100.681963 72.226952,100.851683 72.2619846,100.994391 C72.606023,101.599889 72.8835893,102.272015 72.8665221,103.239011 C73.3345221,103.948052 73.030906,105.525048 73.0084491,106.374096 C72.9648829,106.437572 72.9392821,106.518605 72.8665221,106.552369 L72.8665221,107.015609 C73.087048,107.304627 73.1279194,107.77507 73.3641651,108.048782 C73.5537006,108.167181 73.7607524,108.268472 73.9327716,108.405328 C75.1247793,108.480959 76.6513935,108.221203 77.5236161,108.619166 C77.9480499,108.595306 78.4281766,108.779882 78.9455816,108.65428 C79.1732937,108.599358 79.3780998,108.437292 79.6210825,108.405328 C80.4479424,108.297284 81.9848868,108.358959 82.7488676,108.476007 C83.7800845,108.633122 84.7071017,108.064089 85.5218349,108.26217 C86.237309,108.436391 86.6446756,109.088258 87.0861766,109.437601 C87.0821344,109.957114 87.0008407,110.249284 86.8723877,110.684613 C86.7978311,110.705771 86.7713321,110.773299 86.659048,110.755292 C86.3208484,111.320273 85.9705221,111.871299 85.5568676,112.359299 C85.3228676,112.510111 85.0421574,112.502908 84.7394395,112.608701 C84.6352399,112.644716 84.5427179,112.760863 84.4187562,112.786974 C83.9839923,112.879262 83.5317121,112.710443 83.317025,113.035926 C80.4479424,113.040878 78.2750211,113.140819 75.6740729,113.392472 C75.5321459,113.381668 75.5779578,113.55724 75.4607332,113.570745 C74.9770134,113.674288 74.5031747,113.574797 74.0742495,113.677439 C73.9597198,113.704 73.8703417,113.799439 73.7535662,113.819247 C73.5590902,113.852561 73.3515893,113.781882 73.1499271,113.819247 C72.5579655,113.931343 72.2327908,114.51028 71.6924798,114.603018 C71.5267486,114.791646 71.1481267,114.845218 70.9100845,115.031144 C70.813071,115.106775 70.7587255,115.273343 70.661263,115.351675 C70.6230864,115.382288 70.5179885,115.357077 70.4838541,115.38769 C70.249405,115.598827 70.0890633,115.965277 69.6664261,116.029203 C69.3160998,116.354236 68.8692092,116.58428 68.6352092,117.027262 C68.0198925,117.276664 67.7063954,117.829041 67.0358349,118.024871 C66.8377658,118.29003 66.6199347,118.53448 66.2893704,118.665934 C65.9758733,119.407838 65.1561996,119.645535 64.4762073,120.020089 C64.2916123,120.499985 63.7355816,120.607579 63.5164031,121.052812 C63.2415317,121.12169 63.0874779,121.313018 62.698975,121.26755 C61.7706104,121.940576 60.1132975,121.825328 59.8195624,120.662052 C59.6214933,120.611181 59.5042687,120.477926 59.3574012,120.376635 C59.3322495,120.010185 59.1440614,119.806251 59.215025,119.342561 C59.5047179,118.70645 60.032453,118.308937 60.5660269,117.917277 C61.1687678,117.037166 62.1784261,116.564472 62.7340077,115.637092 C62.9424069,115.572716 63.0430134,115.401196 63.2316507,115.316111 C63.1755086,115.159446 62.8355125,115.286399 62.6630441,115.245432 C62.5489635,115.214369 62.6145374,115.36293 62.5206679,115.352125 C61.3650403,115.403446 60.3221459,115.366531 59.1436123,115.423255 C58.9805758,115.414251 59.0052783,115.593875 58.859309,115.601528 C58.6881881,115.60738 58.6571977,115.471424 58.5390749,115.423255 C58.4312821,115.420554 58.3333704,115.598376 58.2192898,115.637092 C57.9174702,115.740635 57.3524568,115.601077 56.9037697,115.673107 C56.3419002,115.763144 55.6551708,116.219181 55.0906065,115.85138 C54.7447716,116.110686 54.2529674,115.918458 53.846499,116.029203 C53.7476891,116.056214 53.6565144,116.147151 53.5621958,116.171911 C52.8422303,116.358288 52.2138887,116.111137 51.7135509,115.708672 C51.4696699,115.288649 51.1494357,114.943808 50.9311555,114.497225 C50.7955163,113.636923 51.3443608,113.463151 51.3933167,112.786974 C51.5630902,112.755011 51.5734203,112.563683 51.67762,112.466443 C52.0315393,112.443934 52.3109021,112.172472 52.7083877,112.109897 C53.3129251,112.015358 53.9938157,112.122052 54.6994088,112.074332 C54.805405,112.037867 54.8341497,111.924871 54.9482303,111.896059 C56.4649635,111.863646 57.712215,111.646657 59.142714,111.468834 C59.4629482,111.160007 60.3293321,111.399506 60.635643,111.077173 C61.8492092,111.010546 62.9711516,110.852982 64.2260384,110.827321 C64.1698964,110.688214 64.3185605,110.753941 64.3324837,110.685063 C63.8182226,110.499587 63.2738695,110.666155 62.7326603,110.578369 C62.6145374,110.559461 62.5265067,110.460421 62.4128752,110.436111 C62.0638964,110.358679 61.6884184,110.417203 61.3466257,110.364531 C61.1889789,110.369033 61.2235624,110.179956 61.0982534,110.150694 C60.3585259,110.096672 59.8033935,109.857173 58.9293743,109.936856 C58.8152937,109.967919 58.8561651,109.844568 58.7869981,109.830162 C58.2556699,109.839616 57.702334,109.87203 57.4719271,109.58031 C57.171904,109.524937 56.7250134,109.616325 56.5830864,109.402487 C56.3688484,109.355218 56.0593935,109.403838 55.9785489,109.224214 C55.3398772,109.312 54.8709789,109.161638 54.4501382,109.045941 C54.2853052,109.000472 54.1020576,109.023432 53.9875278,108.974812 C53.4813512,108.758723 53.3852361,108.269823 53.2060307,107.728701 C53.1903109,107.582391 53.2810365,107.542325 53.3484069,107.478849 C53.3043916,106.935476 53.3892783,106.522657 53.632261,106.267402 C53.9713589,106.118391 54.3153973,105.94417 54.7699232,105.982435 C55.3232591,106.028354 56.1959309,105.94552 56.6895317,106.231838 C56.9900038,106.258399 57.2325374,106.200325 57.5069597,106.267402 C57.6152015,106.293963 57.7005374,106.3849 57.8267447,106.409661 C58.7313052,106.592435 59.6637121,106.257948 60.5287486,106.409661 C60.6500154,106.431269 60.7802649,106.552819 60.9199463,106.587934 C61.060975,106.623498 61.1966142,106.582531 61.3106948,106.623498 C61.6286833,106.738295 61.8078887,107.104745 62.0930902,107.193432 C62.6881958,107.378908 63.4580154,106.994 63.8348407,107.443284 C64.458691,107.33479 65.0829904,107.591395 65.6120729,107.443284 C65.9004184,107.362701 65.9974319,106.949432 66.3230557,107.015609 C66.5642418,106.269653 66.2884722,105.321114 66.3589866,104.342863 C66.0445912,104.064649 66.1734933,103.340753 66.1101651,102.810886 C65.961501,102.633513 66.0014741,102.411572 65.9327562,102.205387 C65.7948714,101.792568 65.4517313,101.512554 65.5415585,100.993491 C65.5415585,100.862487 65.4171478,100.857085 65.3637006,100.779653 C65.2163839,99.0748044 64.119144,98.3220959 64.3684146,96.2192841 C64.1043225,95.9545756 64.0234779,95.4080517 63.7638772,94.9362583 C63.6327294,94.6981107 63.4032207,94.5117343 63.3371977,94.2951956 C63.2895893,94.1385314 63.3336046,93.962059 63.3017159,93.7963911 C63.2783608,93.6752915 63.1813474,93.5600443 63.1593397,93.4047306 C63.094215,92.9500443 63.0919693,92.644369 62.6976276,92.5138155 C62.3324798,92.5867454 62.0356008,92.807786 61.6664107,92.8703616 C61.4791209,92.9023247 61.2922802,92.8392989 61.0978042,92.8703616 C60.9792322,92.8897196 60.8705413,92.9887601 60.7420883,93.0130701 C60.160906,93.1238155 59.5298695,92.9392399 58.9289251,93.0490849 C58.753762,93.081048 58.5862342,93.2318598 58.3958004,93.2629225 C57.5747793,93.3966273 56.5615278,93.1575793 55.9785489,93.4767601 C55.2019923,93.393476 54.3621075,93.5888561 53.632261,93.4767601 C53.4984184,93.456952 53.3695163,93.3547601 53.2415125,93.3340517 C52.5112169,93.2156531 51.7283724,93.4871144 51.2504914,93.0495351 C50.4577658,93.0004649 49.8033743,92.8140886 49.3308829,92.4435867 C48.9024069,92.4219779 48.3751209,92.4994096 48.157739,92.2657638 C47.5370326,92.3422952 47.2540768,92.0789373 46.7002917,92.0874908 C46.401167,91.9335277 46.2044453,91.4963985 45.7404875,91.6247011 C45.4489981,92.0802878 45.3349175,92.7145978 44.852096,92.9784059 C44.8660192,93.4916162 44.4388906,93.5627454 44.4608983,94.0836089 C43.9488829,94.4370037 43.962357,95.3171144 43.4656123,95.6867159 C43.2594587,96.5969889 42.7070211,97.1592694 42.4348445,98.0033653 C42.3926257,98.0560369 42.3005528,98.058738 42.2569866,98.110059 C41.9906488,99.0788561 41.4184491,99.7397269 40.8705029,100.425808 C40.6418925,101.419815 39.7265528,101.725491 39.6263954,102.848701 C39.2738234,103.421336 39.0690173,104.142531 38.7025221,104.70076 C38.6926411,104.988428 38.5879923,105.180207 38.4891823,105.377838 C38.3894741,105.929314 38.6782687,106.09138 38.7025221,106.518155 C38.9535893,106.872 39.157048,107.273565 39.4489866,107.586443 C39.5042303,107.863306 39.6039386,108.095601 39.8042534,108.228406 C40.0301689,109.058996 40.6823148,109.462362 41.1197735,110.080915 C41.4350672,110.134037 41.5293858,110.343373 41.7593436,110.615734 C41.9587601,110.850731 42.1388637,110.926812 42.2219539,111.221683 C42.8175086,111.492694 43.0483647,112.146362 43.4301305,112.646967 C43.5482534,112.80138 43.7701267,112.880613 43.8922917,113.038177 C43.9740345,113.145321 44.0369136,113.319092 44.1411132,113.466303 C44.2843877,113.671137 44.384096,113.784583 44.5318618,114.036686 C44.6450441,114.230266 44.8408676,114.472915 44.852096,114.820458 C45.2738349,115.317461 44.7146603,116.013897 44.1056315,116.031454 C43.8523186,116.376295 43.3703954,116.542863 42.8610749,116.459129 C42.634261,116.422214 42.3957697,116.211528 42.0791286,116.031454 C42.0135547,115.994539 41.899025,116.028303 41.8303071,115.995439 C41.6924223,115.930162 41.592714,115.764044 41.4750403,115.710923 C41.3739846,115.665004 41.2711324,115.688413 41.1902879,115.639343 C41.1184261,115.596125 41.0838426,115.469173 41.0128791,115.425506 C40.6984837,115.235528 40.2439578,115.21707 40.1950019,114.783993 C39.2464261,114.286089 38.5421804,113.542384 37.9201267,112.717196 C37.7022956,112.651018 37.6021382,112.465993 37.351071,112.432229 C37.2567524,112.253956 37.0438618,112.194081 36.9603225,112.005004 C36.1226833,111.657461 35.6335739,110.959225 34.7918925,110.615284 C34.0589021,110.613033 33.224856,110.568465 32.6589443,110.793557 C32.5911248,110.819668 32.5255509,110.906103 32.4456046,110.935815 C31.7108177,111.205026 30.8076046,110.925011 30.0283532,111.042509 C29.629071,111.102834 29.296261,111.469734 28.9266219,111.399055 C28.0844914,111.82583 26.7954702,111.804221 25.726975,112.005004 C25.5985221,111.9951 25.6304107,112.145911 25.5136353,112.147262 C25.2365182,112.164369 25.031263,112.123852 24.7671708,112.147262 C24.4680461,112.173823 24.2556046,112.359749 24.0207063,112.396664 C23.4413205,112.488952 22.754142,112.261609 22.1010979,112.468244 C22.0476507,112.484 21.9766871,112.565033 21.9232399,112.574937 C21.7112476,112.612753 21.4525451,112.547476 21.1767754,112.610052 C20.9917313,112.652819 20.5331631,112.837395 20.2169712,112.788325 C19.9829712,112.75141 19.7732246,112.495255 19.5414702,112.610052 C19.2665988,112.477247 19.1435355,112.203535 18.9014511,111.968989 C18.8152169,111.884804 18.6696967,111.845188 18.581666,111.754701 C18.2726603,111.438221 18.1581305,110.769697 18.3683263,110.364982 C18.4150365,110.275395 18.5776238,110.256937 18.7235931,110.115579 C18.8915701,109.952162 18.9203148,109.806753 19.1857543,109.65279 C19.4264914,109.512332 19.5607831,109.472266 19.896737,109.474517 C21.0025106,108.920339 22.0925643,108.349956 23.4512015,108.049232 C23.8936008,107.744458 24.4190902,107.522517 25.0865067,107.443284 C25.202833,107.203786 25.6277159,107.273114 25.8329712,107.122303 C25.3982073,106.763055 24.4936468,107.195683 24.1621843,106.766207 C23.3362226,106.715336 22.2767102,106.898561 21.7094511,106.587934 C20.9661305,106.525358 19.9416507,106.744148 19.4700576,106.409661 C18.9944223,106.447026 18.7020345,106.300266 18.2969136,106.266952 C18.2012476,106.126494 18.0323724,106.040059 17.8702342,105.911306 C17.744476,105.810015 17.6272514,105.657402 17.4790365,105.55476 C17.1390403,105.319764 16.5901958,105.223875 16.4837505,104.842118 C16.4298541,104.649439 16.5848061,104.326207 16.376856,104.165041 C16.4621919,103.692797 16.8003916,103.473557 17.052357,103.167432 C18.1271401,102.801432 19.7705298,103.101705 20.855643,103.060738 C20.990833,103.031926 20.9647831,103.164731 21.0689827,103.167432 C21.8747332,103.238111 23.0034127,102.986458 23.4862342,103.381269 C24.3207294,103.589255 25.1426488,103.347956 25.9389674,103.451948 C26.0615816,103.468155 26.1334434,103.561793 26.2592015,103.594657 C26.6948637,103.709004 27.1956507,103.565845 27.6452361,103.594657 C27.5841536,103.275926 27.2468522,103.234059 27.1830749,102.91803 C26.7586411,102.880214 26.5825797,102.593897 26.1877889,102.525469 C26.1823992,102.305328 25.9636699,102.299026 25.9034856,102.133808 C25.4772553,102.073934 25.3088292,101.756103 24.8727179,101.706133 C24.8408292,101.643107 24.7285451,101.660664 24.7658234,101.52786 C23.3829328,101.322576 22.9867946,100.128236 21.6025566,99.9247528 C21.2392054,99.6591439 20.9616392,99.308 20.7496468,98.8911292 C20.3072476,98.7524723 19.9353628,98.5440369 19.6119846,98.2851808 C19.2728868,98.3288487 19.1534165,98.1519262 18.9724146,98.0362288 C18.950856,97.9506937 18.9212131,97.8737122 18.9364837,97.7508118 C18.8138695,97.4973579 18.4846526,97.4410849 18.2964645,97.2520074 C17.9874587,96.9409299 17.9524261,96.7068339 18.1190557,96.2192841 C18.1585797,96.1013358 18.1451056,95.9356679 18.1900192,95.862738 C18.3135317,95.6628561 18.6598157,95.572369 18.7586257,95.3994982 C18.9517543,95.3837417 19.0168791,95.496738 19.1143417,95.577321 C19.606595,95.5165461 19.8257735,95.6326937 20.1455585,95.7916089 C20.4608522,95.9482731 20.5902035,95.9010037 20.6786833,96.1832694 C21.2490864,96.3840517 21.7768215,96.6267011 22.2075432,96.9670406 C22.5385566,96.9440812 22.7783954,97.0129594 22.9540077,97.1453137 L23.3806871,97.1453137 C23.6052553,97.3713063 24.1469136,97.280369 24.3050096,97.5734391 C24.8161267,97.6427675 25.2046296,97.8358967 25.4426718,98.1789373 C26.1064952,98.3450554 26.3283685,98.9537048 27.2908676,98.8204502 C27.3537466,98.8641181 27.4350403,98.8893284 27.4687255,98.9627085 C27.8410595,98.9456015 27.9717582,99.1706937 28.3216353,99.1765461 C28.7087908,99.5362435 29.2809904,99.7113653 29.530261,100.21017 C29.8455547,100.285801 29.9753551,100.548258 30.2762764,100.637845 C30.7334971,101.486443 31.9075393,101.616096 32.6225643,102.205838 C32.7793129,102.214841 32.8974357,102.262561 33.0847255,102.241402 C33.3654357,101.811026 33.6376123,101.370295 33.9376353,100.958827 L33.9376353,100.60228 C34.1900499,100.059358 34.4819885,99.5565018 34.7550633,99.034738 C34.8377044,99.022583 34.9019309,98.9919705 34.9684031,98.9631587 C35.383405,98.3338007 35.9547063,97.8615572 36.141547,97.0035055 C36.3971056,96.7847159 36.4474088,96.3601919 36.7106027,96.1486052 C36.6859002,96.0058967 36.744737,95.9451218 36.7460845,95.8276236 C36.8067179,95.7465904 36.8776814,95.6745609 36.9598733,95.613786 C37.1031478,94.237572 38.3620768,93.9791661 38.5596967,92.656524 C39.0802457,92.3116827 39.1022534,91.4666863 39.5904645,91.0889815 C39.6636737,90.1291882 39.8711747,89.3035498 40.336929,88.7376679 C40.3742073,88.0430332 40.4757121,87.4280812 40.159071,87.0629815 C40.0908023,86.9837491 39.9367486,86.9117196 39.839286,86.8135793 C39.7395777,86.712738 39.6847831,86.5506716 39.5904645,86.4570332 C39.3191862,86.1887232 39.0124261,86.1018376 38.9504453,85.6021328 C38.8148061,85.1722066 38.2695547,84.9385609 38.1330173,84.4978303 C38.095739,84.3771808 38.1087639,84.1917048 38.0616046,84.0345904 C37.9609981,83.6983026 37.8401804,83.2517196 37.8837466,82.6448708 C37.7768522,82.5026125 37.7278964,82.3022804 37.7418196,82.0393727 C37.5742917,81.4581845 37.0110749,81.2749594 36.9598733,80.5780738 C36.9248407,80.4821845 36.7865067,80.490738 36.7460845,80.4002509 C36.5915816,79.6169299 36.4096814,78.8606199 36.3553359,77.9769077 C35.9035048,77.2786716 36.2758388,76.254952 36.1065144,75.3766421 C36.0831593,75.2541919 35.9574012,75.1488487 35.9286564,75.0200959 C35.8298464,74.5744133 35.8159232,73.4629077 35.9286564,72.9893137 C36.0045605,72.6714834 36.1891555,72.3991218 36.2129597,72.0628339 C36.2322726,71.7922731 36.1626564,71.4667897 36.1770288,71.1719188 C36.1878081,70.9589815 36.2547294,70.7618007 36.2479923,70.5659705 C36.2295777,69.993786 36.0377965,69.4711218 36.1060653,68.9619631 C36.1406488,68.7017565 36.2610173,68.4478524 36.3548868,68.2142066 C36.4074357,67.6739852 36.2686526,67.1778819 36.3903685,66.7177934 C36.4200115,66.6061476 36.513881,66.5116089 36.5327447,66.3968118 C36.5583455,66.2392472 36.5048983,66.082583 36.5327447,65.9340221 C36.5507102,65.838583 36.6373935,65.765203 36.6751209,65.6490554 C36.7887524,65.2983616 36.6751209,64.8792399 36.9594242,64.7221255 C36.9306795,63.1806937 37.1444683,62.063786 37.136833,60.5889815 C37.2585489,60.3665904 37.4278733,60.1914686 37.5639616,59.9834834 C37.5841727,59.4563173 37.4772783,58.6243764 37.7418196,58.2376679 C37.654238,57.8491587 37.8208676,57.5430332 37.8837466,57.2756236 C37.9187793,57.1288635 37.8819501,56.9694982 37.9196775,56.8479483 C37.9583033,56.7214465 38.0943916,56.6435646 38.0970864,56.4914022 C38.0997812,56.381107 37.9848023,56.2825166 37.9551593,56.1348561 C37.8972207,55.8485387 37.9026104,55.2412399 37.9551593,54.9234096 C37.9964798,54.6726568 38.3050365,54.4439631 37.9551593,54.2467823 C38.1590672,53.6525387 37.9367447,52.6171144 38.346357,52.0732915 C38.4200154,51.0185092 38.1869136,49.6567011 38.4887332,48.8306125 C38.5129866,47.1860886 38.5772131,44.9014022 38.5596967,43.3433137 C38.5502649,42.4897638 37.8909328,42.3961255 37.5998925,41.8469004 C36.8974434,41.5416753 36.513881,40.9168192 35.8226603,40.5998893 C35.647048,40.2059779 35.0690096,40.2149815 34.8983378,39.8161181 C34.7644952,39.8435793 34.7281152,39.7724502 34.6135854,39.7805535 C33.834334,39.005786 32.7514664,38.5353432 31.9120307,37.8204502 C31.5118503,37.7106052 31.2050902,37.507572 30.9877083,37.2145018 C30.3027754,36.9034244 29.7166526,36.4928561 29.1745451,36.0390701 C28.7267562,35.8108266 28.234952,35.6271513 27.9663685,35.2197343 C27.144,35.0698229 26.7968177,34.4436162 26.0467601,34.2221255 C25.9955585,34.1667528 25.9717543,34.0834686 25.9398656,34.0082878 C25.3833858,33.8660295 24.9508676,33.5981697 24.6602764,33.1885018 C24.0957121,33.1371808 23.693286,32.922893 23.4161689,32.5830037 C22.9975739,32.5271808 22.7918695,32.2584207 22.4208829,32.1553284 C21.9582726,31.57369 20.9962226,31.4926568 20.572238,30.8723026 C20.4374971,30.8533948 20.3755163,30.7606568 20.2169712,30.7656089 C20.0498925,30.3631439 19.4309827,30.4135646 19.3281305,29.9462731 C18.9135777,29.768 18.4518656,29.6369963 18.2973628,29.1976162 C17.4785873,28.7591365 17.104906,27.8749742 16.2003455,27.5229299 C16.1707025,27.4815129 16.1536353,27.4274908 16.1644146,27.3446568 C15.9411939,27.3302509 15.8810096,27.1537786 15.6667716,27.1308192 C15.6029942,26.969203 15.4130096,26.9340886 15.3829175,26.7387085 C14.3777505,26.154369 13.4520806,25.490797 12.6454319,24.7079262 C12.1096123,24.6034834 11.7718618,24.3009594 11.5077697,23.9237048 C10.9000883,23.7130185 10.556499,23.238524 9.87291363,23.104369 C9.78802687,22.9517565 9.594,22.9085387 9.55267946,22.7122583 C9.14531286,22.657786 9.00383493,22.3359041 8.55784261,22.3201476 C8.5353858,22.2238081 8.4091785,22.2314613 8.41546641,22.10631 C7.77948944,21.9239852 7.3716737,21.513417 6.92208829,21.1442657 C6.78824568,21.1712768 6.75231478,21.1005978 6.63823417,21.1082509 C6.5061881,20.9916531 6.39300576,20.854797 6.28296737,20.7161402 C5.56704415,20.5549742 5.34067946,19.9022066 4.64766219,19.7185314 C4.49540499,19.2895055 3.89805374,19.3061624 3.72333973,18.8991956 C3.61599616,18.8523764 3.43993474,18.8748856 3.33214203,18.8280664 C2.10644914,18.2279705 0.821021113,17.6872989 0.346284069,16.3340443 C0.350775432,16.1958376 0.450932821,16.1539705 0.524142035,16.0846421 C0.373681382,15.0316605 1.03525912,14.7917122 1.91017658,14.7665018 C2.46665643,14.3505314 3.55536276,14.4671292 3.97216123,13.9111513 C4.59870633,13.7369299 5.20414203,13.6779557 5.96273321,13.6973137 C6.03504415,13.5230923 6.36605758,13.6072768 6.67371593,13.5190406 C6.84932821,13.4681697 6.98496737,13.3263616 7.10039539,13.305203 C7.23064491,13.280893 7.39008829,13.3358155 7.52662572,13.305203 C7.77904031,13.2489299 8.06289443,12.9635129 8.55784261,13.0913653 C8.82507869,13.0085314 8.91266027,12.6411808 9.1978618,12.5209815 C9.51180806,12.3886273 9.97576583,12.6276753 10.2641113,12.3787232 C10.3647179,12.3724207 10.3332783,12.4993727 10.4779002,12.4498524 C11.2495163,12.3089446 12.0377505,12.1846937 12.8947025,12.129321 C13.0020461,12.1063616 13.0159693,11.9893137 13.1084914,11.951048 C14.0063148,11.9006273 14.5758196,11.521572 15.5257428,11.5233727 C16.123094,11.1839336 16.9409712,11.0659852 17.7296545,10.9178745 C17.9295202,10.7278967 18.1900192,10.7954244 18.476119,10.7040369 C18.7456008,10.6185018 18.9746603,10.365048 19.2580653,10.3119262 C19.6515086,10.2385461 20.0813321,10.3677491 20.5381036,10.2763616 C20.9849942,10.1867749 21.3950557,10.0499188 21.8531747,10.1336531 C22.005881,10.108893 22.0171094,9.94142435 22.1374779,9.88425092 C22.4675931,9.94097417 22.7873781,9.81267159 22.9903877,9.74199262 C23.2989443,9.63439852 23.6286104,9.7397417 23.9147102,9.67086347 C24.0943647,9.62764576 24.3454319,9.43586716 24.7325873,9.52860517 C25.1116583,9.10092989 26.2753704,9.45972694 26.7231593,9.10092989 C27.5235202,9.10723247 28.0445182,8.83442066 28.8915893,8.88709225 C29.711263,8.66335055 30.4334741,8.342369 31.237428,8.10287085 C31.3712706,7.87327675 31.7292322,7.91514391 32.0553052,7.85346863 C32.3791324,7.79224354 32.7739232,7.49602214 33.0860729,7.85346863 C33.5653013,7.80259779 33.9129328,7.9241476 34.2946987,7.85346863 C34.5372322,7.80845018 34.8381536,7.56174908 35.3254664,7.67519557 C36.151428,7.16063469 37.383858,7.05394096 38.560595,6.89142435 C38.8004338,6.73385978 39.0452131,6.72530627 39.3784722,6.60645756 C39.605286,6.52497417 39.9569597,6.53892989 40.3382764,6.46374908 C40.6019194,6.41197786 40.8722994,6.17292989 41.190737,6.28547601 C42.0220883,5.94288561 43.062737,5.81008118 44.1056315,5.67952768 C44.6086641,5.44768266 44.9041958,5.00740221 45.5275969,4.89575646 C45.7283608,4.52705535 46.2295969,4.45952768 46.4164376,4.07642066 C47.2558733,3.83692251 47.7283647,3.2300738 48.4424914,2.86497417 C48.6594242,2.57145387 48.9612438,2.36346863 49.3668138,2.25902583 C49.4256507,2.21175646 49.4220576,2.10056089 49.4732591,2.04518819 C49.7723839,1.83810332 50.1074395,1.80569004 50.4330633,1.65307749 C50.6401152,1.55628782 50.844023,1.35325461 51.0730825,1.26096679 C51.1480883,1.23080443 51.2316276,1.25376384 51.321904,1.22540221 C51.4445182,1.18668635 51.5347946,1.06963838 51.6416891,1.04712915 C51.8164031,1.01066421 52.023904,1.09124723 52.2102956,1.04712915 C52.438906,0.993107011 52.6607793,0.719394834 52.9567601,0.619904059 C53.0843148,0.576686347 53.2186065,0.61900369 53.3479578,0.583889299 C53.4557505,0.554627306 53.5231209,0.463690037 53.6318119,0.441630996 C53.9066833,0.384907749 54.1986219,0.467741697 54.5206526,0.406066421 C54.6100307,0.365099631 54.6805451,0.304774908 54.7694741,0.263808118 C55.8653666,0.266059041 56.6001536,0.186826568 57.5779232,0.263808118 C57.9260038,0.622154982 58.6724683,0.341239852 59.2487102,0.442081181 C59.4687869,0.480346863 59.6210441,0.681129151 59.8527985,0.584339483 C60.0459271,0.771616236 60.4124223,0.783771218 60.5282994,1.04757934 C61.0299846,1.12726199 61.4584607,1.27942435 61.6655125,1.65352768 C62.0302111,1.7516679 62.2992438,1.94479705 62.4479079,2.25902583 C62.8233858,2.35761624 63.0690633,2.58676015 63.2653359,2.86497417 C63.7598349,3.0819631 64.1276775,3.42545387 64.4384798,3.82701845 C64.6221766,3.80901107 64.669785,3.92785978 64.8651593,3.8981476 C65.1382342,4.0755203 65.3151939,4.34923247 65.6116238,4.50364576 C65.8873935,5.27256089 66.5462764,5.65746863 66.9981075,6.24946125 C67.3183417,6.28862731 67.4993436,6.46329889 67.7814012,6.53712915 L67.7814012,6.53712915 Z" id="Shape" fill="#000000"></path>
                <path d="M70.5898503,19.6487528 C70.3904338,19.2534908 70.3131823,18.7704428 69.985762,18.5795646 C69.9116545,18.1906052 69.5545912,18.085262 69.5236008,17.6530849 C69.4706027,17.6467823 69.392453,17.66569 69.3812246,17.6175203 C69.2644491,17.2596236 68.9994587,17.0502878 68.9195125,16.655476 C68.5269674,16.1341624 68.1550825,15.5925904 67.9242265,14.9096605 C67.629144,14.4455203 67.1126372,14.2028708 66.9284914,13.6266347 C66.5916392,13.5239926 66.4964223,13.1183764 66.2175086,12.9139926 C66.073785,12.8086494 65.8775125,12.7910923 65.7553474,12.6645904 C65.5783877,12.4804649 65.5914127,12.1752399 65.3645988,12.0235277 C65.3030672,11.6098081 65.0263992,11.4121771 64.9379194,11.0259188 C64.6118464,10.8899631 64.4631823,10.5752841 64.3338311,10.2421476 C63.8995163,10.0359631 63.7786987,9.516 63.3740269,9.28010332 C63.0641228,8.5458524 62.2960998,8.27033948 61.8810979,7.64098155 C61.4544184,7.58020664 61.1790979,7.22951292 60.7793666,7.03548339 C60.7003186,6.99721771 60.6015086,7.00757196 60.4946142,6.96435424 C60.322595,6.89367528 60.1622534,6.68028782 59.9969712,6.60780812 C59.7908177,6.51732103 59.6255355,6.52767528 59.4988791,6.42953506 C59.389739,6.34490037 59.1283417,6.41918081 58.9657543,6.39397048 C58.6145298,6.04462731 58.0508637,5.99195572 57.4728253,5.9662952 C57.36638,5.82358672 57.1732514,5.76731365 57.0820768,5.61019926 C55.8950096,5.60704797 54.6782994,5.46659041 53.6695393,5.75245756 C53.4570979,5.78712177 53.4701228,5.59624354 53.2783417,5.61019926 C52.8988215,5.83529151 52.5705029,6.11215498 52.0697159,6.21569742 C51.585547,6.39532103 51.4296967,6.90402952 50.8615393,6.99991882 C50.7353321,7.38077491 50.3279655,7.49287085 50.079144,7.78369004 C49.7984338,8.11232472 49.8114587,8.63769004 49.4750557,8.95957196 C49.3093244,9.62494465 49.1638042,10.3101255 48.8709674,10.8476458 C48.8875854,11.5647897 48.5853167,11.963203 48.2664299,12.344059 C48.0989021,13.1377343 47.996499,13.9975867 47.6978234,14.6602583 C47.8972399,14.9587306 47.551405,15.2121845 47.6618925,15.7294465 C47.2751862,16.1962878 47.0384914,16.8143911 47.0223225,17.6535351 C46.7937121,17.9029373 46.9230633,18.2185166 46.8444645,18.5084354 C46.7245451,18.9505166 46.3463724,19.3502804 46.417785,19.8977048 C46.335144,19.9454244 46.2839424,20.025107 46.2399271,20.1115424 C46.1182111,20.7201919 46.2053436,21.4562435 46.0620691,22.1072103 C46.0369175,22.2202066 45.9448445,22.3169963 45.9196929,22.4277417 C45.8756775,22.6231218 45.9295739,22.8266052 45.8487294,22.9981255 C45.7692322,23.1660443 45.5374779,23.2547306 45.4930134,23.4258007 C45.389263,23.8291661 45.5446641,24.4688782 45.4575317,24.9577786 C45.4458541,25.0248561 45.3582726,25.1067897 45.3506372,25.1716162 C45.3425528,25.2422952 45.4220499,25.3381845 45.4216008,25.4210185 C45.4202534,25.8311365 45.1862534,26.3191365 45.1732284,26.7035941 C45.1624491,27.0065683 45.0986718,27.1537786 45.0667831,27.3806716 C45.0402841,27.5620959 45.0950787,27.7439705 45.0667831,27.9150406 C45.0461228,28.037941 44.9513551,28.1419336 44.9244069,28.2715867 C44.8080806,28.8338672 44.8961113,29.5352546 44.8534434,30.1601107 C44.8377236,30.3915055 44.7568791,30.6210996 44.7469981,30.836738 C44.7312783,31.1662731 44.8179616,31.4935572 44.8175125,31.8343469 C44.8170633,32.7500221 44.703881,33.689107 44.7110672,34.6493506 C44.7380154,38.2706347 44.710618,42.0350775 44.6401036,45.5879336 C44.443382,45.8724502 44.5592591,46.272214 44.4267639,46.5855424 C44.3822994,46.6908856 44.3028023,46.7458081 44.2848369,46.8349446 C44.2363301,47.0739926 44.2956161,47.3387011 44.2848369,47.5831513 C44.2372284,48.6352325 44.3827486,49.8655867 44.248906,50.9680886 C44.1842303,51.4997565 44.1137159,51.9936089 44.071048,52.5005166 C44.0072706,53.2545756 43.8954357,53.9793727 43.8222265,54.6740074 C43.7714741,54.7770996 43.6731132,54.8333727 43.6448177,54.9589742 C43.6497582,56.0196089 43.408572,57.1729815 43.3959962,58.1300738 C43.3807255,59.2546347 43.3452438,59.8389742 43.0402802,60.6956753 C43.0030019,60.8010185 42.9212591,60.8496384 42.897904,60.9450775 C42.8597274,61.1057934 42.8938618,61.3056753 42.8619731,61.4798967 C42.8323301,61.6460148 42.7110633,61.7860221 42.6845643,61.9426863 C42.5498234,62.7440148 42.6782764,63.6110701 42.5776699,64.4727232 C42.5655432,64.579417 42.4873935,64.6865609 42.4712246,64.7932546 C42.3005528,65.9029594 42.5408407,67.1364649 42.4357428,68.4275941 C42.373762,68.5081771 42.3252553,68.6027159 42.2578848,68.6769963 C42.0881113,69.8101107 41.9416929,70.9729373 42.0445451,72.1330627 C42.0943992,72.6939926 41.912499,73.2477196 41.9021689,73.8072989 C41.8931862,74.3128561 42.1029328,74.8071587 42.0800269,75.3041624 C42.0714933,75.4896384 41.9794203,75.6584576 41.9735816,75.8389815 C41.9663954,76.0613727 42.0580192,76.3503911 42.0800269,76.6587675 C42.1011363,76.9581402 42.0593666,77.2566125 42.0800269,77.5141181 C42.1110173,77.8958745 42.3270518,78.0543395 42.2574357,78.4757122 C42.8336775,79.1811513 42.6333628,80.6645092 43.2531708,81.3262804 C43.3021267,81.7872694 43.6021497,81.9979557 43.6443685,82.4661476 C44.0526334,82.5084649 44.0750902,82.9370406 44.248906,83.2143542 C44.5763263,83.308893 44.6454933,83.7014539 44.8889251,83.8909815 C45.1413397,84.0881624 45.5177159,84.1196753 45.6349405,84.4613653 C46.0777889,84.4573137 46.1249482,84.8494244 46.5237812,84.8890406 C46.5570173,85.0569594 46.7470019,85.0691144 46.8080845,85.209572 C47.1646987,85.2041697 47.3982495,85.5458598 47.6969251,85.6728118 C47.9376622,85.7759041 48.2291516,85.7849077 48.4788714,85.8866494 C48.7074818,85.9802878 48.8925259,86.1693653 49.1188906,86.2787601 C49.1817697,86.3089225 49.2873167,86.2796605 49.3677121,86.3138745 C49.4440653,86.346738 49.4750557,86.4313727 49.5455701,86.456583 C50.2381382,86.7104871 50.9545106,86.7185904 51.7494818,86.9198229 C51.8164031,86.9950037 51.9008407,87.0530775 51.9978541,87.0976458 C52.3701881,87.0256162 52.5592745,87.1813801 52.7443186,87.2403542 C52.9091516,87.2930258 53.1350672,87.2781697 53.3129251,87.3474982 C53.4198196,87.3884649 53.4975202,87.4703985 53.5972284,87.4902066 C55.148096,87.7909299 56.8947869,86.9594391 58.147428,87.6684797 C58.6226142,87.7558155 58.945094,87.5676384 59.2136775,87.5257712 C59.7477006,87.4424871 60.302833,87.5923985 60.8844645,87.4897565 C61.0483992,87.4609446 61.1916737,87.3538007 61.3461766,87.3119336 C61.5554741,87.2547601 61.7620768,87.2781697 61.9861958,87.2403542 C62.1465374,87.2137934 62.3163109,87.1224059 62.4838388,87.0976458 C63.7746564,86.9090185 65.1301497,86.627203 66.3580883,86.456583 C66.759167,85.8605387 67.7854434,85.8920517 68.5624491,85.6728118 C68.9271478,85.3140148 69.5271939,85.1911144 70.1263417,85.0673137 C70.6046718,84.655845 71.2725374,84.4348044 72.0104683,84.2830923 C72.1492514,84.2443764 72.1829367,84.1003173 72.3302534,84.0692546 C72.7133666,83.9499557 73.175977,83.8378598 73.57481,83.6415793 C73.6911363,83.5844059 73.7216775,83.4970701 73.8231823,83.4637565 C73.9206449,83.4313432 74.0288868,83.4682583 74.1429674,83.4277417 C74.3697812,83.348059 74.5853666,83.1468266 74.8184683,83.0711956 C75.2199962,82.9401919 75.4715125,82.8078376 75.6363455,82.5008118 C76.1806987,82.2748192 76.5117121,81.8349889 77.2712015,81.8237343 C77.4481612,81.6922804 77.6161382,81.5518229 77.7688445,81.3965092 C78.4901574,81.2758598 78.6918196,80.634797 79.3331862,80.4344649 C79.655666,79.8195129 80.1712745,79.3981402 80.3639539,78.6526347 C80.6864338,78.428893 80.7681766,77.9647528 81.1104184,77.7617196 C81.0964952,77.5100664 81.2505489,77.4272325 81.3237582,77.2633653 C81.4872438,76.7848192 81.6597121,76.3175277 81.9282956,75.9447749 C81.9768023,75.1794613 82.2709866,74.8683838 82.3554242,74.1273801 C82.3864146,74.0283395 82.5310365,74.0436458 82.5323839,73.9135424 C82.648261,73.375572 82.4982495,72.6458229 82.5687639,71.9899041 C82.5997543,71.6990849 82.6945221,71.4199705 82.7111401,71.1350037 C82.7717735,70.0680664 82.7901881,68.8363616 82.8539655,67.9999188 C82.8930403,67.4750037 82.8014165,66.9505387 82.747071,66.6101993 C82.6729635,66.1456089 82.8818119,65.5783764 82.9244798,64.9719779 C82.9891555,64.0477491 82.8315086,63.3089963 82.8180345,62.5490849 C82.8014165,61.6041476 82.6015509,60.6731661 82.6756583,59.8767897 C82.7012591,59.6039779 82.6576929,59.304155 82.6756583,59.0574539 C82.7529098,57.9765609 82.6563455,56.7426052 82.5692131,55.5658229 C82.2732322,55.4109594 82.3594664,54.8734391 82.3203916,54.4610701 C82.0248599,54.1162288 82.0356392,53.4639114 81.7868177,53.0718007 C81.6480345,52.1538745 81.3542994,51.4092694 81.3251056,50.4706347 C81.2617774,50.3792472 81.1723992,50.3148708 81.1472476,50.1856679 L81.1472476,49.829572 C80.769524,49.1754539 80.888096,48.0225314 80.720119,47.1572768 C80.3356583,46.4504871 80.1025566,45.5910849 79.9381727,44.6632546 C79.9080806,44.5624133 79.7755854,44.5651144 79.7603148,44.449417 C79.5887447,43.6471882 79.3929213,42.8697196 79.3695662,41.9193801 C79.3448637,41.777572 79.1935048,41.7636162 79.1557774,41.6344133 C79.12838,41.1522657 78.8562035,40.7241402 78.7650288,40.2807085 C78.72281,40.0785756 78.7838925,39.8723911 78.7290979,39.6747601 C78.7008023,39.5734686 78.5723493,39.4685756 78.5512399,39.3542288 C78.4924031,39.04 78.4551248,39.0499041 78.3738311,38.8554244 C78.2426833,38.5429963 78.1730672,38.198155 78.1254587,37.8578155 C78.0019463,37.7560738 77.9296353,37.6021107 77.9476008,37.3590111 C77.628714,36.9777048 77.4867869,36.3150332 77.3789942,35.8981624 C77.3471056,35.7739114 77.3785451,35.6194982 77.3435125,35.5060517 C77.3030902,35.3763985 77.1741881,35.2787085 77.1297236,35.1495055 C77.0668445,34.9644797 77.025524,34.7447897 76.9523148,34.5435572 C76.8198196,34.182059 76.7524491,33.8057048 76.5611171,33.6170775 C76.4326641,32.7720812 75.9790365,32.2525683 75.9570288,31.3008782 C75.5734664,30.7926199 75.6152361,30.0223542 75.3165605,29.4479188 C75.1741843,29.1733063 74.8674242,28.9977343 74.9258119,28.5925683 C74.6891171,28.5088339 74.850357,28.0266863 74.5709942,27.9870701 C74.3643916,28.2436753 74.5054203,28.8482731 74.4645489,29.2696458 C74.1914741,29.3826421 74.2979194,29.6865166 74.2503109,30.0178524 C74.237286,30.111941 74.1622802,30.197476 74.1438656,30.3032694 C74.0702073,30.721941 74.1366795,31.2049889 74.1083839,31.6569742 C74.2673781,32.1742362 74.5112591,32.6064133 74.4991324,33.2956458 C74.1029942,33.6328339 74.3060038,34.0537565 74.2503109,34.4715277 C74.2112361,34.7686494 74.0351747,35.1004354 73.9305259,35.433572 C73.884714,35.5789815 73.9125605,35.7671587 73.8595624,35.8968118 C73.8312668,35.9665904 73.7275163,35.96569 73.6821536,36.0395203 C73.6147831,36.1475646 73.5806488,36.363203 73.5042956,36.5027601 C73.2644568,36.9389889 73.0313551,37.1168118 73.0416852,37.6786421 C72.9199693,37.7817343 72.8184645,37.9059852 72.8642764,38.1774465 C72.4290633,38.988679 71.4858772,39.2903026 71.2640038,40.3153727 C71.2401996,40.4099114 71.0672821,40.3549889 71.086595,40.4936458 C71.0053013,40.887107 70.7757927,41.1320074 70.588952,41.4201255 C70.1986526,41.48 70.0872668,41.8198893 69.6646296,41.8478007 C69.3425988,42.368214 68.6437428,42.5113727 68.100737,42.809845 C67.6268983,42.7904871 67.0892821,42.9106863 66.4654319,42.809845 C66.2817351,42.6968487 66.0459386,42.636524 65.7194165,42.6675867 C65.6039885,42.6644354 65.6942649,42.4550996 65.5415585,42.4893137 C64.8512361,42.3092399 64.0405451,42.165631 63.1243071,42.275476 C62.8889597,42.3038376 62.672476,42.4271882 62.4133244,42.4537491 C61.5900576,42.5383838 60.6805566,42.3893727 59.9605912,42.560893 C59.8402226,42.4677048 59.6147562,42.4798598 59.4270173,42.4537491 C59.073547,42.2381107 58.6257582,42.1170111 58.1119463,42.0620886 C57.4539616,41.4147232 56.3324683,41.2328487 55.7656583,40.4945461 C55.6484338,40.4931956 55.5882495,40.4342214 55.4454242,40.4585314 C54.62081,39.8125166 53.842906,39.1196827 53.1700998,38.3210554 C52.9684376,37.751572 52.7254549,37.2230554 52.3886027,36.7890775 C52.2484722,36.2524576 52.0939693,35.7302435 51.9264415,35.2210849 C51.7144491,35.0590185 51.4813474,34.7443395 51.3578349,34.4368635 C51.2118656,34.0749151 51.1512322,33.8291144 51.1440461,33.40369 C50.8323455,32.9796162 50.8296507,32.2462657 50.5754395,31.7645683 C50.5862188,31.3976679 50.5696008,31.0577786 50.5395086,30.7313948 C50.3585067,30.5063026 50.2565528,30.1398524 50.2197236,29.8049151 C50.1227102,28.9234539 50.1339386,27.8457122 50.1483109,26.8832177 C50.3894971,26.659476 50.2808061,26.3209373 50.3620998,26.0278672 C50.3894971,25.927476 50.4968407,25.8874096 50.5395086,25.7784649 C50.6378695,25.5295129 50.6549367,25.1959262 50.7532975,24.9235646 C50.8561497,24.636797 51.0322111,24.2712472 51.1440461,24.0326494 L51.1440461,23.6405387 C51.3299885,23.5009815 51.3079808,23.2655351 51.3928676,23.0706052 C51.506499,22.8108487 51.7917006,22.5677491 51.9264415,22.2157048 C52.073309,21.830797 52.1375355,21.3513506 52.3531209,21.0753875 C52.4487869,20.9533875 52.6252975,20.9151218 52.7088369,20.7904207 C52.8161804,20.6283542 52.817977,20.3843542 52.9217274,20.2200369 C53.0874587,19.9593801 53.3560422,19.8166716 53.4553013,19.5429594 C53.6349559,19.5213506 53.6762764,19.3606347 53.8815317,19.3646863 C53.9888752,18.783048 54.601048,18.7078672 54.9482303,18.3670775 C55.2617274,18.3486199 55.3555969,18.1100221 55.6946948,18.1176753 C55.8132668,17.9038376 55.9318388,17.69 56.1218234,17.5477417 C56.3499846,17.5274834 56.4366679,17.3649668 56.6549482,17.3339041 C57.5460345,16.5645387 58.4928138,15.8500959 59.8191132,15.5165092 C60.2880115,15.2693579 60.8319155,14.8682435 61.4899002,14.7683026 C61.7975585,14.7214834 62.1191401,14.8511365 62.4497044,14.8394317 C62.8647063,14.8250258 63.2868944,14.6697122 63.6938119,14.7683026 C63.8779578,14.8128708 63.9740729,15.0069004 64.1914549,14.9465756 C64.3028407,15.0726273 64.4735125,15.1392546 64.5116891,15.3386863 C65.7894818,16.1364133 66.6392476,17.3631661 67.7463685,18.3319631 C68.1981996,18.3895867 68.3621344,18.7357786 68.8130672,18.795203 C69.2406449,19.1503985 69.6525029,19.5213506 70.16362,19.7928118 C70.4613973,20.1484576 70.7358196,20.5261624 71.158906,20.7548561 C71.0834511,20.2898155 70.7542342,19.9733358 70.5898503,19.6487528 L70.5898503,19.6487528 Z" id="Shape" fill="#878787"></path>
                <path d="M39.6277428,11.3113358 C39.0523992,11.636369 37.9596507,11.2888266 37.2104914,11.4896089 C37.0892246,11.5220221 37.0137697,11.612059 36.8907063,11.6323173 C36.513881,11.6935424 36.0907946,11.5701919 35.7885259,11.8105904 C35.0546372,11.8011365 34.3180537,12.0064207 33.5491324,12.0955572 C33.2738119,12.1270701 32.9760345,12.055941 32.6962226,12.0955572 C32.542618,12.1171661 32.3786833,12.2193579 32.1985797,12.2378155 C31.4386411,12.317048 30.4150595,12.0617934 30.1015624,12.4516531 C29.6151478,12.4183395 29.2405681,12.7568782 28.821524,12.8433137 C28.6513013,12.8788782 28.4595202,12.8329594 28.2879501,12.8788782 C27.8949559,12.9851218 27.5253167,13.2327232 27.1152553,13.3065535 C26.4276276,13.4303542 25.6883493,13.5023838 24.8044491,13.4848266 C24.5982956,13.7139705 24.2421305,13.6113284 23.9156084,13.6986642 C23.5576468,13.7941033 23.2329213,14.0430554 22.7783954,13.9480664 C22.3970787,14.1245387 21.8635048,14.1479483 21.4273935,14.2685978 C21.145785,14.6499041 20.5336123,14.454524 20.0768407,14.5535646 C19.9465912,14.5819262 19.8446372,14.6773653 19.7215739,14.6962731 C19.5482073,14.7223838 19.3667562,14.6706125 19.188,14.6962731 C19.049666,14.7160812 18.9333397,14.8106199 18.7968023,14.8389815 C18.2960154,14.9420738 17.7768138,14.8173727 17.2683916,14.8745461 C17.151167,14.8880517 17.1965298,15.0640738 17.0550518,15.0528192 C16.373263,15.2369446 15.7287524,15.4575351 14.8866219,15.4804945 C14.603666,15.6605683 14.3058887,15.7789668 14.0691939,15.9081697 C13.7062917,16.1062509 13.417048,15.9923542 12.8960499,16.0864428 C12.7716392,16.108952 12.6566603,16.2237491 12.5053013,16.2647159 C12.3768484,16.2993801 12.2353704,16.2642657 12.1141036,16.3007306 C11.9654395,16.3452989 11.8437236,16.4790037 11.6874242,16.5145683 C10.9944069,16.6730332 10.305881,16.643321 9.58995777,16.7639705 C10.3076775,17.0543395 10.9202994,17.4491513 11.4031209,17.975417 C12.0125988,18.1122731 12.4069405,18.4656679 12.8605681,18.7591882 C13.3788714,18.8699336 13.825762,19.0509077 14.1401574,19.3651365 C14.8735969,19.3660369 15.2261689,19.7491439 15.9173896,19.7928118 C16.0296737,19.7995646 15.9632015,19.9845904 16.0952476,19.9710849 C16.8044338,20.2218376 17.5553896,20.4307232 18.1922649,20.7548561 C19.0541574,20.8412915 19.7395393,21.1041993 20.5735854,21.2180959 C20.6463455,21.2406052 20.5839155,21.3981697 20.7159616,21.3608044 C21.7584069,21.408524 22.7020422,21.5552841 23.3820345,21.9663026 C23.4884798,22.0378819 23.7175393,21.9865609 23.8796775,22.0023173 C24.1873359,22.2602731 24.5794319,22.1243173 24.9459271,22.1805904 C25.0595585,22.1981476 25.1660038,22.2958376 25.301643,22.3232989 C25.6259194,22.389476 26.0422687,22.3390554 26.296929,22.4299926 C26.4159501,22.47231 26.4635585,22.5835055 26.5812322,22.6082657 C26.8444261,22.6636384 27.1152553,22.565048 27.3636276,22.6082657 C27.6573628,22.6591365 27.8760921,22.8864797 28.1810557,22.7865387 C28.4617658,23.0309889 29.0088138,22.8900812 29.4251631,23.0003764 C29.5971823,23.045845 29.731025,23.1863026 29.8873244,23.214214 C30.156357,23.2619336 30.4195509,23.1597417 30.7047524,23.214214 C30.8561113,23.2430258 30.9859117,23.3681771 31.1314319,23.3924871 C31.5253244,23.458214 31.9933244,23.3578229 32.4110211,23.4280517 C32.8947409,23.5099852 33.3874434,23.6702509 33.9043992,23.7130185 C34.6028061,23.7710923 35.3730749,23.9160517 35.9659347,23.8552768 C36.2578733,23.8255646 36.5565489,23.6373875 36.8547754,23.6414391 C37.1107831,23.6450406 37.4027217,23.8098081 37.7076852,23.8197122 C38.3454587,23.8404207 38.9468522,23.6819557 39.5208484,23.6414391 C39.7063417,23.3785314 39.8891401,23.0444945 39.8761152,22.7149594 C39.8639885,22.4070332 39.664572,22.2548708 39.6987063,21.930738 C39.7463148,21.4679483 40.3701651,21.320738 40.4096891,20.8975646 C40.4375355,20.595941 40.2542879,20.3082731 40.3032438,20.0066494 C40.3822917,19.5141476 40.6261727,19.241786 40.9428138,18.8667823 C40.9315854,18.1563911 40.9634741,17.5000221 40.9428138,16.8715646 C41.1157313,16.7711734 41.0577927,16.5762435 41.1916353,16.4083247 C41.3636545,16.1926863 41.6250518,16.162524 41.6892783,15.8739557 C41.8136891,15.3166273 41.6771516,14.813321 41.9380998,14.413107 C42.001428,14.3163173 42.1384146,14.3613358 42.1514395,14.1992694 C42.0153512,12.9108413 42.6252783,12.3701697 42.7555278,11.3487011 C41.8698311,11.0128635 40.6409942,11.323941 39.6277428,11.3113358 L39.6277428,11.3113358 Z" id="Shape" fill="#FFFFFF"></path>
                <path d="M67.5330288,24.1740074 C67.1135355,23.9768266 66.5503186,23.9237048 66.3239539,23.5324945 C65.6026411,23.4005904 65.5092207,22.6388782 64.7955432,22.499321 C64.3589827,22.05769 64.0585106,21.4801033 63.480023,21.1807306 C62.9055777,21.2712177 62.7030173,20.8291365 62.2713973,20.8601993 C62.0225758,20.8782066 61.8348369,21.1312103 61.5604146,21.1807306 C61.1287946,21.2590627 60.724572,21.2487085 60.2448944,21.3590037 C59.9987678,21.8456531 59.3933321,21.7952325 59.0721996,22.1427749 C58.9769827,22.2458672 58.9603647,22.4029815 58.8588599,22.499321 C58.7937351,22.5605461 58.6756123,22.5555941 58.6100384,22.6060148 C58.4815854,22.7050554 58.4555355,22.8972841 58.325286,23.03369 C58.0135854,23.3614244 57.5298656,23.6567454 57.1525912,23.8530258 C56.8202303,24.1969668 56.5363762,24.5899779 56.334714,25.0644723 C56.4487946,25.3962583 56.1384415,25.6650185 56.0863417,25.9193727 C55.9758541,26.4559926 56.1483225,27.1708856 56.0153781,27.8074465 C55.9439655,28.1486863 55.8087754,28.4350037 55.8015893,28.7339262 C55.7979962,28.8856384 55.8595278,29.0594096 55.8730019,29.2327306 C55.9021958,29.6243911 55.8285374,30.0597196 55.9084837,30.3725978 C55.9376775,30.4864945 56.0328944,30.5796827 56.0508599,30.6935793 C56.0921804,30.9510849 56.0158273,31.2067897 56.0867908,31.441786 C56.1406871,31.62231 56.2960883,31.7515129 56.3351631,31.9405904 C56.3603148,32.0603395 56.3109098,32.1805387 56.3351631,32.2971365 C56.3953474,32.5843542 56.684142,32.7810849 56.6908791,33.0809077 C57.2006488,33.5324428 57.4094971,34.2851513 57.864023,34.7916089 C57.8563877,34.9064059 57.9269021,34.9424207 57.8999539,35.0765756 C58.3180998,35.5123542 58.5785988,36.1065978 59.215025,36.3235867 C59.281048,36.3289889 59.2370326,36.4442362 59.2859885,36.4662952 C59.6659578,36.6454686 60.0814088,36.592797 60.6010595,36.6801328 C60.8408983,36.7206494 61.0268407,36.8354465 61.2055969,36.8228413 C61.3430326,36.8129373 61.4642994,36.7107454 61.5967946,36.6801328 C61.9089443,36.6081033 62.3122687,36.5410258 62.6275624,36.5018598 C63.5999424,36.3812103 64.6131939,37.0393801 65.5779386,36.8584059 C65.8236161,36.8120369 65.9871017,36.5977491 66.2889213,36.6090037 C66.4964223,36.3424945 66.6082572,35.9796458 66.9639731,35.860797 C66.9684645,35.4133137 67.283309,35.2778081 67.3196891,34.8631882 C67.5649175,34.6389963 67.8833551,34.3198155 67.853263,33.9367085 C67.3632553,34.0001845 67.1166795,33.8196605 66.6805681,33.8300148 C66.1353167,33.4144945 65.4081651,33.1808487 65.0097812,32.6185683 C64.7007754,32.5127749 64.3899731,32.4083321 64.3342802,32.0486347 C63.9637428,31.8861181 63.786334,31.5286716 63.7301919,31.0510258 C63.3816622,30.8371882 63.2536583,30.180369 63.1970672,29.5185978 C63.1198157,28.623631 63.2190749,27.4319926 63.7301919,27.2384133 C64.0634511,26.432583 64.7910518,26.0211144 65.3300154,25.4210185 C65.4108599,25.3836531 65.5442534,25.398059 65.6138695,25.3494391 C66.0944453,24.8321771 67.0156238,24.7115277 67.9601574,24.8506347 C67.8411363,24.6007823 67.6125259,24.4621255 67.5330288,24.1740074 L67.5330288,24.1740074 Z" id="Shape" fill="#FFFFFF"></path>
                <path d="M22.4586104,27.0245756 C22.5075662,27.0700443 22.4801689,27.1929446 22.5295739,27.2384133 C23.0317083,27.4477491 23.1713896,28.0203838 23.7027179,28.2004576 C23.811858,28.3521697 23.9407601,28.4836236 24.0584338,28.6276827 C24.7855854,28.8136089 25.0923455,29.4204576 25.835666,29.5897269 C25.9254933,29.6545535 25.9007908,29.8332768 26.0490058,29.8391292 C26.4455931,29.9291661 26.7590902,30.1011365 27.1511862,30.1956753 C27.2261919,30.263203 27.2612246,30.370797 27.2931132,30.4806421 C27.7952476,30.6305535 28.1051516,30.9731439 28.6441152,31.0861402 C28.6625298,31.139262 28.6966641,31.1761771 28.7150787,31.2288487 C29.1112169,31.2356015 29.2131708,31.5372251 29.5329559,31.6209594 C29.757524,32.0486347 30.3939501,32.0643911 30.6346871,32.4758598 C31.148499,32.5429373 31.2455125,33.0273358 31.7723493,33.0818081 C31.9075393,33.3856827 32.3629635,33.3690258 32.5188138,33.6517417 C32.6284031,33.6607454 32.7195777,33.6882066 32.8026679,33.723321 C33.148952,33.9583173 33.5437428,34.1442435 33.9403301,34.3288192 C34.1500768,34.652952 34.6046027,34.7317343 34.7932399,35.0770258 C35.4467332,35.2192841 35.7633743,35.7248413 36.250238,36.0035055 C36.5430749,36.170524 36.876334,36.175476 36.9612207,36.50231 C37.5855202,36.5540812 38.0306142,36.7841255 38.3831862,37.1078081 C38.7685451,37.0303764 38.857025,37.2505166 39.1651324,37.2505166 C39.2383417,36.709845 39.0699155,36.1056974 39.0941689,35.4691365 C39.1417774,34.2176236 39.0294933,32.5429373 39.0941689,31.1577196 C39.1206679,30.5859852 39.2006142,30.016952 38.9163109,29.8035646 C38.6073052,29.8310258 38.3086296,29.6604059 37.9915393,29.6613063 C37.6753474,29.6617565 37.3456814,29.7774539 36.9252898,29.7324354 C36.5381344,29.6914686 36.045881,29.6725609 35.7876276,29.5897269 C35.6690557,29.5519114 35.5599155,29.4078524 35.4319117,29.3758893 C34.9486411,29.2547897 34.3867716,29.2917048 33.9394319,29.1976162 C33.8572399,29.180059 33.7745988,29.0805683 33.6906104,29.0549077 C33.5617083,29.0161919 33.3986718,29.0571587 33.2994127,29.0193432 C33.0582265,28.9275055 32.9113589,28.6740517 32.6593935,28.5916679 C30.4658119,28.6249815 29.2122726,27.8974834 27.1848714,27.8078967 C26.5650633,27.5629963 25.7799731,27.4824133 25.1942994,27.2023985 C24.6768944,27.1510775 24.2232668,27.0353801 23.9147102,26.7747232 C22.8439693,26.7670701 22.1711631,26.1710258 21.284119,26.0976458 C21.6128868,26.4703985 22.0427102,26.7405092 22.4586104,27.0245756 L22.4586104,27.0245756 Z" id="Shape" fill="#FFFFFF"></path>
            </g>
            <g id="Group" transform="translate(104.199616, 0.000000)" fill="#000000" sketch:type="MSShapeGroup">
                <path d="M122.381551,3.39799262 C123.178768,1.49461255 124.841021,-0.14901107 127.000917,0.310627306 C129.16261,0.769815498 130.553585,6.49121033 129.101079,11.6386199 C127.09344,18.7474834 124.158334,25.3512399 122.302054,32.5280812 C121.247482,38.0612989 120.414334,43.9091956 116.883674,48.5312399 C113.928357,52.3276458 112.869743,57.1392177 110.386019,61.1845756 C107.406,64.5762657 104.054994,67.6532768 100.851754,70.8315793 C96.3653321,75.2379852 88.8993397,76.4656384 83.4944338,73.1419262 C80.3226334,71.0229077 79.9071823,64.9926863 80.7870403,64.294 C81.6664491,63.5953137 83.3224146,63.417941 84.249881,64.5334982 C85.1768983,65.648155 84.487025,69.0411956 85.5622572,70.0189963 C86.6383877,70.996797 92.9932169,71.6549668 95.791785,69.1087232 C100.131789,65.4113579 103.583401,60.599786 105.52861,55.2466421 C108.854914,43.6962583 105.806626,26.759417 104.808196,20.1218967 C103.809766,13.4843764 99.7949367,10.7810185 100.581823,5.40401476 C100.469539,3.16164576 103.184119,1.99476753 104.898023,2.5764059 C106.612376,3.15849446 109.914426,10.4735424 111.509758,21.2275498 C111.990783,24.468428 112.432733,31.8068856 113.409605,37.036679 C114.680211,34.0497048 115.894676,31.0190627 116.589939,27.8299557 C117.704246,22.9391513 119.838092,18.8429225 120.669893,13.8733358 C121.491812,10.5487232 121.751413,6.74556458 122.381551,3.39799262 L122.381551,3.39799262 L122.381551,3.39799262 Z" id="Shape"></path>
                <path d="M16.0153013,1.85340959 C20.3440768,4.09622878 22.8960691,8.4121476 24.9980269,12.6380295 C27.4938772,10.6216531 29.0905566,8.08486347 32.2946948,6.31653875 C35.498833,4.54821402 40.28438,10.1935277 40.8947562,14.3635867 C41.5060307,18.5340959 40.920357,23.1363321 40.3432169,26.9831587 C39.7660768,30.8304354 39.1247102,33.8718819 38.7137505,37.8470111 C38.1693973,43.1096679 42.3778042,43.0664502 43.7054511,45.9269225 C44.4653896,47.5660443 41.8541113,49.80031 40.7267793,50.4341697 C39.5994472,51.0680295 36.1958925,50.3661919 34.2286756,49.1957122 C31.4067524,48.0112768 30.7541574,44.7100738 30.057547,42.0620886 C29.8325298,31.9531956 35.5096123,22.3422066 33.7674127,12.1648856 C31.9461651,10.2038819 26.2551593,15.8437934 25.1305221,17.4653579 C24.8394818,21.1559705 24.9867985,25.654214 23.3788906,31.5133653 C22.7496507,34.8276236 20.7712054,37.812797 20.8156699,41.2612103 C20.9279539,44.9234613 19.867094,51.1211513 18.1401651,51.6519188 C16.4127869,52.1826863 11.3586564,50.0344059 10.4716123,47.6862435 C9.58501727,45.3385314 16.8902188,19.7117786 15.1269098,11.9843616 C14.5407869,9.41470849 13.6878772,8.8857417 12.7321152,7.48791882 C10.7190864,9.16710701 7.77814203,12.4822657 6.53762764,12.356214 C5.29711324,12.2301624 5.0253858,11.3883173 5.07254511,9.30756458 C5.12015355,7.22636162 10.6975278,0.750907749 16.0153013,1.85340959 L16.0153013,1.85340959 Z" id="Shape"></path>
                <path d="M93.6125758,1.60535793 C95.478737,1.5977048 97.5555432,3.4015941 97.47919,5.26895941 C97.4028369,7.13632472 95.5514971,7.74902583 94.1739962,7.68149815 C92.7969443,7.61397048 91.698357,6.49030996 91.3969866,4.87504797 C88.2611171,7.88318081 84.6514088,10.8683542 83.7185528,15.3431882 C83.7288829,17.5414391 85.8223071,18.8132103 87.7324837,19.253941 C92.218906,20.5261624 96.5130979,22.9053875 99.2784299,26.7585166 C101.234868,28.8100074 101.101025,32.2242066 99.5263532,34.4665756 C97.7037582,37.205048 96.7861727,40.9474317 94.5791171,42.9845166 C92.3711631,45.0216015 85.3264607,50.3117196 79.5141881,49.0264428 C76.9837543,48.248524 75.7594088,45.6676162 74.7578349,43.4360517 C72.9707217,39.9543247 76.0163148,34.4697269 77.325547,33.7705904 C78.633881,33.0719041 79.5141881,33.4910258 80.0715662,34.2491365 C80.6293935,35.0076974 79.0151977,37.6219188 79.4239117,39.8854465 C79.8330749,42.1489742 80.7389827,44.9702804 81.8079271,45.0243026 C84.1317582,45.1413506 89.0282418,41.3111808 91.5779885,35.6149963 C92.7452937,33.008428 93.4216929,29.3272694 90.8027793,27.3878745 C87.9916353,25.834738 84.6082917,25.6875277 81.8074779,24.0758672 C79.2783916,21.1793801 76.8638349,18.0587011 79.2429098,13.100369 C81.6210864,8.14158672 86.3693551,1.63461993 93.6125758,1.60535793 L93.6125758,1.60535793 Z" id="Shape"></path>
                <path d="M72.464096,19.9980959 C71.8344069,15.0519188 69.0111363,7.6540369 67.4750902,6.87926937 C65.9376967,6.10450185 62.3365221,5.61695203 60.6482188,6.60960886 C56.7187255,8.91860517 53.295858,16.0180148 50.1020499,21.0456753 C47.1346065,25.812679 45.4737006,31.9086273 44.4025106,36.8003321 C43.6376315,40.2897122 45.2352092,45.7581033 49.3272898,47.5962066 C52.172119,48.6442362 55.948906,50.6480074 57.916572,50.5800295 C59.8833397,50.5120517 67.2810633,43.5922657 69.0250595,36.2110406 C70.7686065,28.8289151 73.0946833,24.9442731 72.464096,19.9980959 L72.464096,19.9980959 Z M59.7041344,41.9369373 C58.6693244,42.6590332 57.8730058,44.5331513 56.5440115,44.034797 C53.8119155,43.0092768 50.8112361,36.1349594 51.1817735,31.2671144 C51.9691094,27.5143764 53.1835739,23.7836974 55.263524,20.5369668 C57.6920038,16.9102804 57.9053436,11.2181476 63.0766987,10.3618967 C63.0434626,14.1483985 64.4824952,17.6296753 65.6506987,21.1577712 C64.9311823,28.3238081 63.6165605,35.7396974 59.7041344,41.9369373 L59.7041344,41.9369373 Z" id="Shape"></path>
                <path d="M10.6521651,71.6428118 C13.7669251,67.7541181 15.2697351,60.6150923 20.9284031,60.5988856 C26.451881,60.5831292 28.9850096,67.1081033 28.8588023,68.093107 C28.732595,69.0781107 27.1453474,70.8446347 25.7359578,70.1585535 C24.326119,69.471572 24.57,66.7394022 24.1540998,64.655048 C21.0626948,64.5537565 18.0503378,65.9070111 17.0042994,69.005631 C13.5185528,77.592 11.8441727,86.8203321 8.53942802,95.4872841 C6.39210749,100.321365 7.90973896,106.485292 12.0355048,109.786945 C13.766476,111.647557 16.9158196,112.353897 18.9827447,110.766996 C21.2603148,109.017579 24.7792975,103.067041 25.5576507,97.831845 C25.7377543,96.6249004 26.8534088,96.0635203 27.378,96.2809594 C28.9540192,96.9359779 29.7907601,98.9586568 29.4372898,100.081867 C28.2659424,103.803092 26.3840614,112.271063 21.0397889,117.010155 C15.1089443,122.26921 4.94049904,117.73 1.9946142,110.812465 C-0.00673704415,107.070531 0.566809981,102.732554 0.420840691,98.6633358 C0.263193858,94.8664797 2.09656814,91.4180664 3.39951248,87.957048 C5.9416238,82.5728413 6.91984261,76.4323247 10.6521651,71.6428118 L10.6521651,71.6428118 L10.6521651,71.6428118 Z" id="Shape"></path>
                <path d="M39.0636276,66.2383469 C41.2446334,65.7625018 43.0398311,72.1681771 43.8936392,75.6616089 C45.9569712,74.0175351 48.4604568,72.3419483 50.3189827,70.9927454 C57.8222534,65.5468635 65.3686411,74.0188856 63.4027716,78.0651439 C60.9594702,83.0928044 55.6816699,85.9793875 54.3962418,84.8804871 C53.111263,83.7820369 53.2172591,81.6270037 53.4530557,79.8901919 C54.4425029,77.906679 57.0461459,76.9149225 56.7775624,74.412797 C56.6944722,73.6357786 56.7973244,72.3023321 55.3214626,72.0740886 C53.8442534,71.845845 46.9068944,77.940893 44.703881,80.4988413 C43.6376315,83.704155 43.6942226,89.1207749 43.2329597,95.362583 C42.4460729,100.874192 46.5377044,104.494576 45.5603839,111.128494 C44.5830633,117.761963 37.9776161,120.404096 36.4837889,120.430657 C34.9899616,120.456768 33.1961113,119.666694 32.9374088,118.403476 C32.5435163,116.480738 35.004334,110.688214 35.66681,106.497446 C35.1732092,94.2249668 34.7680883,81.8507454 36.6796123,69.6719041 C36.9266372,68.0818524 36.8826219,66.7137417 39.0636276,66.2383469 L39.0636276,66.2383469 Z" id="Shape"></path>
                <path d="M74.8382303,74.5739631 C69.0075432,75.4833358 65.7297466,87.881417 62.4357812,95.408952 C60.3212476,102.484952 59.7822841,112.243151 66.6518234,116.953882 C69.4292821,119.467712 73.9332207,119.451956 76.2920845,118.668185 C78.6513973,117.883513 81.2788445,112.829292 81.6273743,108.964908 C82.4138119,101.853343 87.4948906,95.8595867 87.202952,88.5787528 C88.102572,81.2875646 80.0055432,73.7681328 74.8382303,74.5739631 L74.8382303,74.5739631 Z M78.3989827,103.420435 C77.6134434,105.955875 76.129048,108.152325 74.4102035,110.124583 C69.2253743,107.387011 67.1126372,101.019151 68.2372745,95.4643247 C68.6760806,91.8484428 71.4629712,88.9411513 71.3614664,85.2109225 C71.2720883,82.6642288 72.9455701,79.5615572 73.7409904,78.8966347 C75.1741843,77.7000443 76.4793743,78.7287159 77.2527869,79.0573506 C78.0266488,79.3859852 82.3275777,84.755786 82.3805758,87.6005018 C82.4609712,91.9591882 80.1654357,98.2811292 78.3989827,103.420435 L78.3989827,103.420435 Z" id="Shape"></path>
                <path d="M125.170238,55.8994096 C125.85562,54.1652989 128.015516,52.8822731 128.673052,54.2382288 C129.331486,55.5946347 124.529321,69.7610406 124.090065,78.358214 C123.606795,85.2428856 120.312829,91.9380295 121.77342,98.8911292 C122.032572,104.593166 122.945666,114.48507 121.507981,115.402996 C120.069846,116.320472 115.229954,113.247963 114.310572,109.765786 C114.004261,102.384561 112.724672,94.9114982 109.968322,88.0380812 C107.698388,92.6466199 105.505704,97.0903911 104.191532,102.339542 C103.048031,106.903513 103.313021,111.680871 102.504576,116.311469 C102.05499,116.863845 101.514679,118.424185 100.212633,118.207196 C98.4601036,117.916827 97.1432361,112.394863 95.9054165,105.706472 C94.7861689,99.6591439 95.1167332,94.6958598 93.7239616,87.6662288 C93.0754088,84.3942878 91.9175355,79.4251513 94.0239846,78.5567454 C96.1304338,77.6869889 98.2647294,79.1131734 99.0417351,81.2222878 C100.257547,85.3225683 100.486157,91.8849077 100.664464,93.0099188 C100.96853,94.9362583 100.903405,97.3015277 101.194445,98.4666052 C103.229033,92.5421771 107.152687,83.6208708 109.272161,77.0621328 C110.220737,74.1269299 112.037044,69.4013432 113.149106,69.5607085 C114.260269,69.720524 114.490676,73.7370701 115.163931,76.2067823 C116.203681,80.0184945 116.471367,82.2473579 118.267912,87.0584797 C118.968564,80.9841402 119.17876,77.1530701 120.302948,72.3081845 C121.61757,66.7520074 121.942296,60.790214 125.170238,55.8994096 L125.170238,55.8994096 L125.170238,55.8994096 Z" id="Shape"></path>
            </g>
        </g>
    </g>
</svg>