<svg xmlns="http://www.w3.org/2000/svg" fill="none" viewBox="0 0 125 54" height="54" width="125">
<path fill="#1D1D1B" d="M9.63423 33.3127C9.02361 33.652 8.34514 33.8216 7.66667 33.8216C6.6829 33.7537 6.00443 32.7021 6.00443 31.3113C5.97051 27.444 6.00443 23.5767 6.00443 19.7095C6.00443 19.6755 6.07228 19.6077 6.14012 19.472C7.25959 19.472 9.05753 19.5399 10.2109 19.472C11.8392 19.4042 13.0266 18.149 12.9926 16.6903C12.9587 15.1977 11.7375 14.0782 10.1092 14.0782C8.98969 14.0782 7.22567 14.0782 5.93658 14.0782C5.93658 12.7213 6.00443 11.5339 5.93658 10.3466C5.83481 8.58262 4.71534 7.46315 3.08702 7.42922C1.42478 7.3953 0.373157 8.34515 0.10177 10.1092C0.0339233 10.6519 0 11.1947 0 11.7375C0 12.5177 0 13.264 0 14.0103V19.9469C0 20.2522 0 20.8289 0 21.4056C0.0339233 25.0354 0 28.6992 0.20354 32.329C0.40708 35.8231 2.78171 38.6387 5.97051 39.385C8.61653 39.9956 11.1269 39.6903 13.1283 37.6549C14.2817 36.4676 14.3156 34.8393 13.3658 33.7198C12.4838 32.5664 11.0929 32.4986 9.63423 33.3127Z"></path>
<path fill="#1D1D1B" d="M35.3481 14.0782C34.0251 12.9926 32.4646 12.9248 30.8702 13.2301C29.2758 13.5015 27.9528 14.3835 26.7655 15.5708C26.5958 15.3333 26.528 15.2316 26.4602 15.1298C25.646 13.8407 24.3908 13.2979 23 13.6033C21.6091 13.9425 20.8967 14.8584 20.761 16.4867C20.7271 16.8599 20.7271 17.267 20.7271 17.6401C20.7271 21.6092 20.7271 25.5782 20.7271 29.5472C20.7271 31.7862 20.6932 33.9912 20.795 36.2301C20.8967 38.1298 22.0501 39.1475 23.8481 39.1136C25.5103 39.0797 26.5958 37.8924 26.6298 36.0266C26.6637 34.8053 26.6298 33.5841 26.6298 32.3629C26.6298 29.3437 26.5619 26.3245 26.6637 23.2714C26.7655 19.472 29.4115 17.8776 32.8377 19.4041C33.3805 19.6416 33.9911 19.7095 34.6018 19.6077C35.7212 19.4381 36.4336 18.6239 36.6372 17.5384C36.9085 16.2154 36.3997 14.8923 35.3481 14.0782Z"></path>
<path fill="#1D1D1B" d="M43.4899 36.8407C43.7273 38.0959 44.7789 39.0118 46.068 39.0797C48.0017 39.1815 49.2568 37.9941 49.2907 35.9587C49.3247 32.77 49.2907 29.5812 49.2907 26.3924C49.2907 23.1357 49.2907 19.8791 49.2907 16.6224C49.2907 14.8245 48.0695 13.5693 46.4073 13.5354C44.7789 13.5015 43.5238 14.621 43.4899 16.3511C43.422 23.034 43.4899 29.6829 43.4899 36.3658C43.422 36.5354 43.4559 36.7051 43.4899 36.8407Z"></path>
<path fill="#1D1D1B" d="M94.8836 16.5546C94.8836 14.7906 93.6285 13.5694 92.0001 13.5354C90.4057 13.5015 89.2184 14.5871 89.0488 16.2493C89.0149 16.6903 88.981 17.1652 88.981 17.6062C88.981 23.4411 88.981 29.2759 88.981 35.1107C88.981 35.6535 89.0149 36.1962 89.0827 36.739C89.2863 38.062 90.4057 39.0458 91.7287 39.0797C93.6284 39.1476 94.8497 37.9602 94.8497 35.9927C94.8836 32.77 94.8497 29.5473 94.8497 26.3245C94.8497 23.0679 94.8836 19.8113 94.8836 16.5546Z"></path>
<path fill="#1D1D1B" d="M79.9237 14.5192C78.906 13.3658 77.3795 13.2301 76.2261 14.4513C74.4621 16.351 71.85 19.2006 69.0682 22.2198C66.2865 19.1327 63.6405 16.2153 61.8765 14.2817C61.7747 14.1799 61.673 14.0782 61.5373 13.9764C60.5874 13.264 59.2644 13.3658 58.4502 14.2139C57.1272 15.503 57.0933 17.233 58.3824 18.6917C60.4178 20.9646 62.4871 23.2035 64.5225 25.4764C64.7261 25.7139 64.9974 25.9853 65.2688 26.3245C62.4532 29.4115 59.8072 32.295 58.0432 34.2626C57.9414 34.3643 57.8396 34.5 57.7718 34.6357C57.1272 35.6873 57.229 37.0443 57.9753 38.028C59.1626 39.4868 60.7231 39.5207 62.0461 38.0959C64.1154 35.857 66.1508 33.5841 68.2202 31.3451C68.4237 31.1077 68.6951 30.8363 69.0004 30.4971C71.6803 33.5162 74.6995 36.8747 75.9547 38.2316C77.1081 39.4868 78.7025 39.5207 79.8219 38.3673C80.9414 37.2478 80.9414 35.4499 79.8898 34.2965C78.1597 32.3629 75.5476 29.4794 72.7998 26.3923C75.5137 23.441 78.5668 20.1504 79.788 18.7596C80.9753 17.4705 80.9753 15.7065 79.9237 14.5192Z"></path>
<path fill="#1D1D1B" d="M123.854 21.1003C123.379 19.7095 122.667 18.3865 121.717 17.267C120.699 16.1136 119.478 15.1637 118.087 14.5192C116.493 13.8068 114.763 13.4337 113.032 13.4676C111.438 13.4676 109.844 13.7729 108.385 14.4174C106.96 15.0281 105.671 15.944 104.62 17.0974C103.534 18.2508 102.72 19.6416 102.143 21.1003C101.532 22.6947 101.227 24.3909 101.261 26.0871C101.261 27.8172 101.532 29.5472 102.109 31.1756C102.652 32.736 103.5 34.1608 104.62 35.3821C105.705 36.5694 107.028 37.5192 108.521 38.1638C110.081 38.8422 111.777 39.1815 113.473 39.1475C117.341 39.2493 121.004 37.4514 123.277 34.3644C124.024 33.4145 123.888 32.0236 122.972 31.2434L122.294 30.6328C122.26 30.5989 122.226 30.5649 122.158 30.531C121.14 29.7508 119.715 29.9543 118.935 30.972C118.325 31.8201 117.51 32.5325 116.561 33.0074C115.611 33.4823 114.525 33.7198 113.473 33.6859C112.456 33.7198 111.472 33.5163 110.556 33.0753C109.776 32.6682 109.063 32.1254 108.521 31.4469C107.944 30.7346 107.537 29.8865 107.266 29.0045C107.198 28.8009 107.13 28.5974 107.096 28.3938H122.294C123.549 28.3938 124.6 27.3761 124.6 26.121V25.3068C124.533 23.882 124.295 22.4573 123.854 21.1003ZM110.251 19.5059C110.963 19.0989 111.845 18.8953 112.931 18.8953C113.779 18.8953 114.627 19.031 115.407 19.3363C116.086 19.6077 116.696 20.0148 117.205 20.5576C117.748 21.1343 118.155 21.8127 118.46 22.559C118.528 22.6947 118.562 22.8304 118.596 22.9661H107.299C107.571 22.3216 107.91 21.7109 108.317 21.1682C108.86 20.5236 109.504 19.9469 110.251 19.5059Z"></path>
<path fill="#1D1D1B" d="M46.5091 44.8467C44.4059 44.8467 42.7097 46.5428 42.7097 48.6461C42.7097 50.7493 44.4059 52.4455 46.5091 52.4455C48.6124 52.4455 50.3085 50.7493 50.3085 48.6461C50.3085 46.5428 48.6124 44.8467 46.5091 44.8467ZM46.5091 50.9529C45.254 50.9529 44.2023 49.9352 44.2023 48.68C44.2023 47.4249 45.22 46.3732 46.4752 46.3732C47.7304 46.3732 48.782 47.3909 48.782 48.68C48.8159 49.9352 47.7982 50.9529 46.5091 50.9529Z"></path>
<path fill="#1D1D1B" d="M92.068 7.39529C94.1102 7.39529 95.7657 5.7398 95.7657 3.69764C95.7657 1.65549 94.1102 0 92.068 0C90.0259 0 88.3704 1.65549 88.3704 3.69764C88.3704 5.7398 90.0259 7.39529 92.068 7.39529Z"></path>
<path fill="#1D1D1B" d="M55.9056 47.5945H55.3967V51.7331H55.9056V47.5945Z"></path>
<path fill="#1D1D1B" d="M55.6683 45.8983C55.4308 45.8983 55.2612 46.0679 55.2612 46.3054C55.2612 46.5089 55.4308 46.7125 55.6683 46.7125C55.9058 46.7125 56.0754 46.5429 56.0754 46.3054C56.0754 46.0679 55.8718 45.8983 55.6683 45.8983Z"></path>
<path fill="#1D1D1B" d="M59.1625 47.5266C58.6536 47.5266 58.2126 47.7979 57.9752 48.2389L57.9412 47.5944H57.4663V51.733H57.9752V49.4263C57.9752 48.5442 58.4501 48.0015 59.0607 48.0015C59.6035 48.0015 59.9766 48.3746 59.9766 49.1209V51.733H60.4855V49.0531C60.5194 48.1711 60.0445 47.5266 59.1625 47.5266Z"></path>
<path fill="#1D1D1B" d="M64.7938 45.8983C64.5563 45.8983 64.3867 46.0679 64.3867 46.3054C64.3867 46.5089 64.5563 46.7125 64.7938 46.7125C64.9973 46.7125 65.2009 46.5429 65.2009 46.3054C65.2009 46.0679 64.9973 45.8983 64.7938 45.8983Z"></path>
<path fill="#1D1D1B" d="M62.2153 46.8481V47.5945H61.3672V48.0694H62.2153V51.7331H62.7241V48.0694H63.7757V47.5945H62.7241V46.8481C62.7241 46.3393 62.9277 46.1358 63.233 46.1358C63.4026 46.1358 63.6061 46.1697 63.7757 46.2375V45.7626C63.6061 45.6947 63.4026 45.6608 63.233 45.6608C62.5884 45.6608 62.2153 46.1018 62.2153 46.8481Z"></path>
<path fill="#1D1D1B" d="M65.0308 47.5945H64.522V51.7331H65.0308V47.5945Z"></path>
<path fill="#1D1D1B" d="M68.2877 47.5266C67.7789 47.5266 67.3379 47.7979 67.1004 48.2389L67.0665 47.5944H66.5916V51.733H67.1004V49.4263C67.1004 48.5442 67.5753 48.0015 68.1859 48.0015C68.7287 48.0015 69.1019 48.3746 69.1019 49.1209V51.733H69.6107V49.0531C69.6447 48.1711 69.2036 47.5266 68.2877 47.5266Z"></path>
<path fill="#1D1D1B" d="M71.4088 45.8983C71.1713 45.8983 71.0017 46.0679 71.0017 46.3054C71.0017 46.5089 71.1713 46.7125 71.4088 46.7125C71.6123 46.7125 71.8159 46.5429 71.8159 46.3054C71.8159 46.0679 71.6123 45.8983 71.4088 45.8983Z"></path>
<path fill="#1D1D1B" d="M71.6461 47.5945H71.1372V51.7331H71.6461V47.5945Z"></path>
<path fill="#1D1D1B" d="M73.9192 46.5428H73.4104V47.5944H72.5962V48.0693H73.4104V50.6475C73.4104 51.4617 73.7496 51.767 74.4959 51.767C74.6994 51.767 74.903 51.7331 75.0726 51.6652V51.2242C74.903 51.2921 74.7334 51.326 74.5298 51.2921C74.021 51.2921 73.9192 51.0546 73.9192 50.5797V48.0693H75.0387V47.5944H73.9192V46.5428Z"></path>
<path fill="#1D1D1B" d="M77.7522 47.5266C76.5649 47.5266 75.8186 48.4425 75.8186 49.6976C75.8186 50.9867 76.6328 51.8348 77.7862 51.8348C78.7021 51.8348 79.3466 51.3599 79.5841 50.5797H79.0413C78.8378 51.0885 78.3968 51.3599 77.7862 51.3599C76.972 51.3599 76.3953 50.7832 76.3614 49.8673H79.6519V49.562C79.618 48.2389 78.8378 47.5266 77.7522 47.5266ZM76.3275 49.3923C76.3953 48.5782 76.9042 48.0015 77.7183 48.0015C78.5325 48.0015 79.0752 48.5103 79.0752 49.3923H76.3275Z"></path>
<path fill="#1D1D1B" d="M83.3836 47.5945H82.8748V51.7331H83.3836V47.5945Z"></path>
<path fill="#1D1D1B" d="M83.1461 45.8983C82.9086 45.8983 82.739 46.0679 82.739 46.3054C82.739 46.5089 82.9086 46.7125 83.1461 46.7125C83.3496 46.7125 83.5532 46.5429 83.5532 46.3054C83.5192 46.0679 83.3496 45.8983 83.1461 45.8983Z"></path>
<path fill="#1D1D1B" d="M89.0825 47.5266C88.5397 47.5266 88.0309 47.8658 87.8273 48.3746C87.6577 47.8319 87.1489 47.4926 86.6061 47.5266C86.0972 47.5266 85.6562 47.7979 85.4527 48.2389L85.4188 47.5944H84.9438V51.7331H85.4527V49.4263C85.4527 48.5443 85.8937 48.0015 86.5382 48.0015C87.081 48.0015 87.4542 48.3746 87.4542 49.121V51.7331H87.963V49.3584C87.997 48.5103 88.4379 48.0015 89.0486 48.0015C89.5913 48.0015 89.9645 48.3746 89.9645 49.121V51.7331H90.4734V49.0531C90.4394 48.1711 89.9984 47.5266 89.0825 47.5266Z"></path>
<path fill="#1D1D1B" d="M93.2214 47.5266C92.3393 47.5266 91.7626 48.1372 91.7626 48.9174H92.2715C92.2715 48.3068 92.6786 48.0354 93.2214 48.0354C93.7641 48.0354 94.1034 48.3407 94.1034 49.0192V49.2906L92.7464 49.562C92.068 49.6976 91.627 50.0369 91.627 50.7493C91.627 51.3938 92.068 51.8687 92.7803 51.8687C93.3231 51.9027 93.798 51.6313 94.1034 51.1903V51.8009H94.6122V49.0531C94.6461 48.0354 94.1034 47.5266 93.2214 47.5266ZM94.1034 50.1047C94.1034 50.41 94.0016 50.6814 93.832 50.9189C93.5945 51.1903 93.2553 51.3599 92.8821 51.3599C92.4411 51.3599 92.1697 51.1224 92.1697 50.7153C92.1697 50.2743 92.475 50.1047 92.8482 50.0029L94.1034 49.7316V50.1047Z"></path>
<path fill="#1D1D1B" d="M99.4972 47.5944H98.0385C97.8349 47.5266 97.6653 47.4927 97.4618 47.4927C96.478 47.4927 95.9013 48.1372 95.9013 48.9853C95.9013 49.2906 96.0031 49.5959 96.1727 49.8673C95.9013 50.0708 95.7317 50.3762 95.7317 50.6815C95.7317 51.0546 95.9691 51.3939 96.3084 51.5296C96.0031 51.6992 95.8335 52.0045 95.8335 52.3437C95.8335 53.1579 96.4441 53.5989 97.5975 53.5989C98.6152 53.5989 99.2597 53.124 99.2597 52.2759C99.2597 51.6313 98.8866 51.1564 97.9706 51.1564H96.8172C96.478 51.1564 96.2066 50.9868 96.2066 50.6815C96.2066 50.4779 96.3084 50.3083 96.4441 50.1726C96.7155 50.3762 97.0547 50.444 97.4279 50.444C98.3777 50.444 98.9544 49.7995 98.9544 48.9853C98.9544 48.6461 98.8526 48.3408 98.683 48.0694H99.4972V47.5944ZM97.0547 51.6313H97.9367C98.4456 51.6313 98.7509 51.8688 98.7509 52.2759C98.7509 52.8526 98.3438 53.124 97.5975 53.124C96.7833 53.124 96.3423 52.8526 96.3423 52.3098V52.2759C96.3762 51.9027 96.6815 51.5974 97.0547 51.6313ZM97.4279 50.0369C96.8512 50.0369 96.4102 49.5281 96.4102 48.9853C96.4102 48.9514 96.4102 48.9175 96.4102 48.8496C96.4441 48.3068 96.919 47.9337 97.4279 47.9676H97.4618C98.0385 47.9676 98.4795 48.4765 98.4795 49.0192C98.4795 49.562 98.0046 50.0708 97.4279 50.0369Z"></path>
<path fill="#1D1D1B" d="M100.617 45.8983C100.379 45.8983 100.209 46.0679 100.209 46.3054C100.209 46.5429 100.379 46.7125 100.617 46.7125C100.82 46.7125 101.024 46.5429 101.024 46.3054C100.99 46.0679 100.82 45.8983 100.617 45.8983Z"></path>
<path fill="#1D1D1B" d="M100.854 47.5945H100.345V51.7331H100.854V47.5945Z"></path>
<path fill="#1D1D1B" d="M104.077 47.5266C103.568 47.5266 103.127 47.7979 102.889 48.2389L102.856 47.5944H102.381V51.733H102.923V49.4263C102.923 48.5442 103.398 48.0015 104.009 48.0015C104.552 48.0015 104.925 48.3746 104.925 49.1209V51.733H105.434V49.0531C105.434 48.1711 104.993 47.5266 104.077 47.5266Z"></path>
<path fill="#1D1D1B" d="M108.215 47.5266C107.333 47.5266 106.757 48.1372 106.757 48.9174H107.266C107.266 48.3068 107.639 48.0354 108.215 48.0354C108.758 48.0354 109.097 48.3407 109.097 49.0192V49.2906L107.741 49.562C107.062 49.6976 106.621 50.0369 106.621 50.7493C106.621 51.3938 107.062 51.8687 107.774 51.8687C108.317 51.9027 108.792 51.6313 109.097 51.1903V51.8009H109.606V49.0531C109.606 48.0354 109.131 47.5266 108.215 47.5266ZM109.097 50.1047C109.097 50.41 108.996 50.6814 108.826 50.9189C108.589 51.1903 108.249 51.3599 107.876 51.3599C107.435 51.3599 107.164 51.1224 107.164 50.7153C107.164 50.2743 107.469 50.1047 107.842 50.0029L109.097 49.7316V50.1047Z"></path>
<path fill="#1D1D1B" d="M111.811 46.5428H111.302V47.5944H110.454V48.0693H111.269V50.6475C111.269 51.4617 111.608 51.767 112.354 51.767C112.558 51.767 112.761 51.7331 112.931 51.6652V51.2242C112.761 51.2921 112.592 51.326 112.422 51.2921C111.913 51.2921 111.811 51.0546 111.811 50.5797V48.0693H112.931V47.5944H111.811V46.5428Z"></path>
<path fill="#1D1D1B" d="M114.559 47.5945H114.05V51.7331H114.559V47.5945Z"></path>
<path fill="#1D1D1B" d="M114.322 45.8983C114.084 45.8983 113.915 46.0679 113.915 46.3054C113.915 46.5089 114.084 46.7125 114.322 46.7125C114.525 46.7125 114.729 46.5429 114.729 46.3054C114.729 46.0679 114.559 45.8983 114.322 45.8983Z"></path>
<path fill="#1D1D1B" d="M117.85 47.5266C116.629 47.5266 115.781 48.4425 115.781 49.6976C115.781 50.9189 116.629 51.8687 117.85 51.8687C119.071 51.8687 119.885 50.9528 119.885 49.6976C119.885 48.4086 119.071 47.5266 117.85 47.5266ZM117.85 51.326C116.934 51.326 116.323 50.6136 116.323 49.6637C116.323 48.7139 116.934 48.0015 117.85 48.0015C118.766 48.0015 119.376 48.7139 119.376 49.6637C119.342 50.6136 118.766 51.326 117.85 51.326Z"></path>
<path fill="#1D1D1B" d="M122.735 47.5266C122.226 47.5266 121.785 47.7979 121.547 48.2389L121.513 47.5944H121.039V51.733H121.547V49.4263C121.547 48.5442 122.022 48.0015 122.633 48.0015C123.176 48.0015 123.549 48.3746 123.549 49.1209V51.733H124.058V49.0531C124.092 48.1711 123.651 47.5266 122.735 47.5266Z"></path>
</svg>
